<svg height="511pt" viewBox="0 0 511.99895 511" width="511pt" xmlns="http://www.w3.org/2000/svg"><path d="m7.496094 458.488281 122.558594-122.558593 46.484374 46.488281-122.558593 122.558593zm0 0" fill="#e27858"/><path d="m33.980469 484.976562 122.558593-122.558593 20 19.996093-122.558593 122.5625zm0 0" fill="#ca5935"/><path d="m80.414062 281.09375c-14.472656 14.472656-14.472656 37.9375 0 52.410156l98.558594 98.554688c14.472656 14.472656 37.9375 14.472656 52.410156 0 14.472657-14.472656 14.472657-37.933594 0-52.40625l-8.503906-90.054688-90.054687-8.503906c-14.472657-14.472656-37.9375-14.472656-52.410157 0zm0 0" fill="#827f98"/><path d="m231.382812 379.652344-8.503906-90.054688-18.273437-1.726562 6.777343 71.78125c14.472657 14.472656 14.472657 37.9375 0 52.410156-14.472656 14.46875-37.9375 14.46875-52.40625 0l20 20c14.46875 14.46875 37.933594 14.46875 52.40625 0 14.472657-14.472656 14.472657-37.9375 0-52.410156zm0 0" fill="#6a647f"/><path d="m470.289062 8.066406c-141.65625 10.679688-265.523437 107.238282-314.304687 150.371094-8.855469 7.828125-5.894531 22.40625 5.371094 25.976562 27.34375 8.664063 64.886719 31.28125 62.089843 90.054688l14.5625 14.5625c58.773438-2.800781 81.390626 34.742188 90.054688 62.089844 3.570312 11.265625 18.148438 14.226562 25.976562 5.371094 43.128907-48.785157 139.691407-172.652344 150.371094-314.308594 1.460938-19.398438-14.71875-35.578125-34.121094-34.117188zm0 0" fill="#827f98"/><path d="m482.835938 9.636719c1.320312 3.90625 1.90625 8.144531 1.574218 12.550781-10.679687 141.65625-107.242187 265.523438-150.371094 314.304688-2.625 2.96875-6.007812 4.601562-9.480468 5.046874 1.367187 3.277344 2.527344 6.496094 3.503906 9.582032 3.570312 11.265625 18.148438 14.226562 25.976562 5.371094 43.128907-48.78125 139.691407-172.648438 150.371094-314.304688 1.128906-14.996094-8.28125-28.0625-21.574218-32.550781zm0 0" fill="#6a647f"/><path d="m251.558594 381.707031c-5.332032 5.332031-12.695313 8.628907-20.832032 8.628907-16.269531 0-29.460937-13.191407-29.460937-29.460938v-158.25c0-16.269531 13.191406-29.460938 29.460937-29.460938 16.273438 0 29.460938 13.191407 29.460938 29.460938v158.25c0 8.132812-3.296875 15.5-8.628906 20.832031zm0 0" fill="#ffb25a"/><path d="m201.265625 222.289062h58.921875v118.921876h-58.921875zm0 0" fill="#ff9c20"/><path d="m330.683594 302.582031c-5.332032 5.332031-12.699219 8.628907-20.832032 8.628907h-158.25c-16.269531 0-29.460937-13.1875-29.460937-29.460938 0-16.269531 13.191406-29.460938 29.460937-29.460938h158.25c16.269532 0 29.460938 13.191407 29.460938 29.460938 0 8.136719-3.296875 15.5-8.628906 20.832031zm0 0" fill="#f9d888"/><path d="m299.015625 187.722656c-2.929687 2.929688-2.929687 7.675782 0 10.605469 0 0 9.230469 9.234375 9.238281 9.242187 2.894532 2.894532 7.714844 2.890626 10.605469 0 2.929687-2.929687 2.929687-7.679687 0-10.605468l-9.238281-9.242188c-2.929688-2.929687-7.679688-2.929687-10.605469 0zm0 0"/><path d="m415.671875 107.613281c1.925781.003907 3.851563-.707031 5.304687-2.160156 2.929688-2.929687 2.929688-7.675781 0-10.605469l-9.238281-9.242187c-2.929687-2.925781-7.679687-2.925781-10.605469 0-2.929687 2.929687-2.929687 7.679687 0 10.609375 0 0 9.234376 9.234375 9.238282 9.238281 1.425781 1.429687 3.359375 2.160156 5.300781 2.160156zm0 0"/><path d="m351.871094 155.683594c-4.128906-.28125-7.707032 2.847656-7.984375 6.980468-.355469 5.316407 4.265625 8.054688 8.972656 8.054688 8.113281 0 16.035156-3.320312 21.992187-9.273438 6.441407-6.441406 9.796876-15.183593 9.207032-23.984374-.277344-4.132813-3.851563-7.257813-7.988282-6.980469-4.132812.277343-7.257812 3.855469-6.980468 7.988281.300781 4.480469-1.464844 8.988281-4.847656 12.371094-3.378907 3.378906-7.882813 5.144531-12.371094 4.84375zm0 0"/><path d="m500.335938 12.160156c-7.8125-7.8125-18.800782-12.441406-30.609376-11.550781-26.355468 1.984375-53.675781 7.058594-81.199218 15.082031-3.976563 1.15625-6.261719 5.320313-5.101563 9.296875 1.160157 3.976563 5.324219 6.261719 9.296875 5.101563 26.523438-7.726563 52.8125-12.613282 78.132813-14.523438 14.613281-1.101562 27.175781 11.464844 26.074219 26.078125-10.554688 140.035157-107.371094 263.371094-148.507813 309.898438-3.894531 4.40625-11.414063 2.992187-13.207031-2.667969-3.78125-11.925781-8.980469-22.453125-15.527344-31.457031.117188-.03125.230469-.074219.347656-.109375 15.480469-4.40625 26.78125-19.453125 26.78125-35.539063-.003906-19.953125-16.859375-36.960937-36.964844-36.960937h-42.160156v-42.164063c0-20.378906-16.582031-36.960937-36.964844-36.960937-9.765624 0-19.230468 3.921875-26.136718 10.828125-4.488282 4.488281-7.824219 10.171875-9.507813 16.300781-9.007812-6.550781-19.535156-11.75-31.460937-15.53125-5.675782-1.796875-7.046875-9.332031-2.667969-13.207031 36.644531-32.398438 111.980469-91.746094 204.757813-125.179688 3.894531-1.40625 5.914062-5.703125 4.511718-9.601562-1.402344-3.894531-5.703125-5.917969-9.597656-4.511719-95.128906 34.28125-172.15625 94.945312-209.605469 128.054688-12.949219 11.449218-8.5 33.496093 8.074219 38.746093 13.96875 4.429688 25.613281 11.015625 34.671875 19.597657v33.628906s-42.136719 0-42.160156 0c-13.503907 0-26.371094 7.757812-32.695313 19.683594-15.371094-4.425782-32.179687-.296876-43.796875 11.316406-17.15625 17.160156-17.140625 45.875 0 63.015625l20.734375 20.734375-93.652344 93.648437c-2.925781 2.929688-2.925781 7.679688 0 10.605469 0 0 46.46875 46.464844 46.488282 46.488281 2.824218 2.820313 7.6875 2.914063 10.605468 0l37.472657-37.472656c2.929687-2.929687 2.929687-7.679687 0-10.609375-2.929688-2.925781-7.675781-2.925781-10.605469 0l-32.171875 32.171875-35.878906-35.878906 88.347656-88.347657 35.878906 35.878907-34.964843 34.964843c-2.925782 2.925782-2.925782 7.675782 0 10.605469 2.929687 2.929688 7.679687 2.929688 10.609374 0l34.960938-34.964843s20.730469 20.730468 20.734375 20.734374c17.050781 17.050782 45.8125 17.203126 63.015625 0 11.613281-11.617187 15.742188-28.425781 11.316406-43.800781 3.222656-1.707031 6.207032-3.902343 8.859375-6.554687 6.984375-6.980469 10.828125-16.265625 10.828125-26.136719v-42.160156h33.625c8.582032 9.058593 15.171875 20.703125 19.597656 34.671875 5.253907 16.574218 27.304688 21.015625 38.746094 8.074218 42.140625-47.664062 141.332032-174.132812 152.230469-318.710937.890625-11.8125-3.746094-22.796875-11.554687-30.605469zm-291.570313 190.484375c0-11.800781 10.207031-21.960937 21.964844-21.960937 11.886719 0 21.960937 10.089844 21.960937 21.960937v42.164063h-43.925781s0-42.15625 0-42.164063zm-57.160156 57.164063h158.246093c11.789063 0 21.964844 10.035156 21.964844 21.960937 0 11.917969-10.0625 21.960938-21.964844 21.960938 0 0-159-.007813-159.375-.027344-11.515624-.585937-20.710937-10.085937-20.828124-21.714844-.117188-11.96875 9.976562-22.179687 21.957031-22.179687zm81.996093 137.9375c2.925782 10.1875.179688 21.332031-7.519531 29.03125-11.527343 11.527344-30.277343 11.523437-41.804687 0 0 0-98.539063-98.542969-98.558594-98.558594-11.402344-11.402344-11.390625-30.410156 0-41.800781 7.488281-7.488281 18.859375-10.441407 29.035156-7.519531-.007812.078124-.003906.160156-.011718.242187-.058594.871094-.101563 1.746094-.101563 2.628906 0 19.742188 15.5625 35.921875 35.0625 36.914063.628906.03125 44.0625.046875 44.0625.046875v42.164062c0 20.808594 18.863281 38.304688 39.589844 36.859375.082031-.003906.164062-.003906.246093-.007812zm19.089844-36.851563c0 11.199219-8.910156 20.90625-20.066406 21.867188-12.640625 1.078125-23.859375-9.167969-23.859375-21.867188v-42.164062h43.921875c.003906 0 .003906 42.144531.003906 42.164062zm0 0"/></svg>