<svg id="Capa_1" enable-background="new 0 0 512 512" height="512" viewBox="0 0 512 512" width="512" xmlns="http://www.w3.org/2000/svg"><g id="Page-1"><g id="_x30_43---Bow-and-Arrow"><path id="Shape" d="m315.904 171.349c-9.301-21.675-43.435-80.64-133.803-64.597-27.602 5.578-55.974 6.213-83.797 1.877-74.069-13.056-88.32-68.181-89.088-71.168-3.016-12.606 4.759-25.271 17.365-28.288s25.272 4.759 28.288 17.365c.427 1.707 16.213 52.309 119.04 34.048 95.744-17.067 151.808 32.597 176.981 75.776z" fill="#ff9801"/><path id="Shape_1_" d="m29.269 26.539c.384 1.536 13.278 42.786 91.127 37.547-55.176-4.216-65.185-36.199-65.527-37.547-1.45-6.06-5.253-11.293-10.569-14.543s-11.707-4.251-17.762-2.78c-2.596.638-5.061 1.721-7.287 3.2 5.02 3.257 8.604 8.309 10.018 14.123z" fill="#f57c00"/><path id="Shape_2_" d="m199.322 57.685c52.53 3.432 99.837 32.979 125.969 78.677l-18.304 18.304c3.413 5.314 6.395 10.892 8.917 16.683l34.987-34.987c-30.826-53.571-90.018-84.297-151.569-78.677z" fill="#f57c00"/><path id="Shape_3_" d="m375.637 161.109c43.179 25.173 92.843 81.237 75.776 176.981-18.347 103.509 33.536 118.955 34.048 119.04 12.607 3.016 20.382 15.681 17.365 28.288s-15.681 20.382-28.288 17.365c-14.878-4.364-28.372-12.508-39.168-23.637-17.223-17.918-28.412-40.773-32-65.365l-.085-.085c-4.258-27.832-3.594-56.195 1.963-83.797 16.043-90.453-43.776-124.757-64.597-133.803z" fill="#ff9801"/><path id="Shape_4_" d="m485.461 457.131c-.512-.085-52.395-15.531-34.048-119.04 17.067-95.744-32.597-151.808-75.776-176.981l-10.24 10.24c38.554 28.732 75.452 82.287 60.39 166.767-18.347 103.509 33.536 118.955 34.048 119.04 9.245 2.243 16.228 9.835 17.693 19.234 1.465 9.4-2.878 18.756-11.003 23.705 2.597 1.086 5.266 1.993 7.987 2.714 12.607 3.016 25.272-4.759 28.288-17.365 3.016-12.607-4.759-25.272-17.365-28.288z" fill="#f57c00"/><path id="Shape_5_" d="m439.893 96.853-218.026 218.027-92.928 93.013-12.459 12.373c-6.871 6.608-17.767 6.502-24.508-.239s-6.847-17.637-.239-24.508l12.459-12.373 92.928-93.013 218.027-218.026c3.387 4.787 7.184 9.27 11.349 13.397 4.128 4.165 8.611 7.962 13.397 11.349z" fill="#825a2c"/><path id="Shape_6_" d="m197.12 290.133-92.928 93.013-.085-.085-86.272 8.789c-3.62.193-6.988-1.856-8.479-5.161s-.801-7.185 1.738-9.773l78.251-78.251c1.518-1.539 3.558-2.452 5.717-2.56z" fill="#ffe0b2"/><path id="Shape_7_" d="m169.933 291.729-91.341 91.418-.085-.085-66.628 6.827c1.659 1.411 3.798 2.13 5.973 2.005l86.255-8.832.085.085 92.928-93.013z" fill="#dfc49c"/><path id="Shape_8_" d="m221.867 314.88-5.973 102.059c-.108 2.159-1.021 4.199-2.56 5.717l-78.251 78.251c-2.587 2.539-6.469 3.23-9.773 1.738s-5.354-4.859-5.16-8.479l8.789-86.272z" fill="#ffe0b2"/><path id="Shape_9_" d="m194.671 342.101-4.378 74.837c-.108 2.159-1.021 4.199-2.56 5.717l-67.14 67.157-.444 4.369c-.193 3.62 1.856 6.988 5.16 8.479s7.185.801 9.773-1.738l78.251-78.268c1.539-1.518 2.452-3.558 2.56-5.717l5.973-102.059z" fill="#dfc49c"/><path id="Shape_10_" d="m503.296 18.944-19.029 80.981c-.655 3.558-3.439 6.342-6.997 6.997-13.301 1.739-26.748-1.883-37.376-10.069-4.787-3.387-9.27-7.184-13.397-11.349-4.165-4.128-7.962-8.61-11.349-13.397-8.186-10.628-11.809-24.075-10.069-37.376.655-3.558 3.439-6.342 6.997-6.997l80.981-19.029c2.844-.521 5.763.388 7.807 2.433 2.044 2.043 2.953 4.962 2.432 7.806z" fill="#9e9e9e"/><path id="Shape_11_" d="m493.056 8.704-16.623 3.908c1.218 1.87 1.67 4.137 1.263 6.332l-19.029 80.981c-.378 1.927-1.397 3.669-2.893 4.941 6.884 2.455 14.271 3.161 21.495 2.057 3.558-.655 6.342-3.439 6.997-6.997l19.029-80.981c.521-2.844-.388-5.763-2.433-7.807s-4.962-2.955-7.806-2.434z" fill="#707070"/><path id="Shape_12_" d="m470.69 115.968c2.691.008 5.378-.218 8.03-.674 6.935-1.194 12.439-6.501 13.884-13.389l19.098-81.425c1.057-5.676-.787-11.506-4.916-15.542s-9.999-5.748-15.65-4.562l-80.683 18.944c-7.031 1.356-12.496 6.909-13.739 13.961-1.904 13.009.813 26.275 7.68 37.487l-52.053 52.053c-20.454-30.003-75.29-89.284-179.968-70.639-94.626 16.81-109.141-27.435-109.226-27.657-4.134-17.17-21.398-27.743-38.571-23.62-8.288 1.95-15.45 7.137-19.889 14.403s-5.786 16.005-3.74 24.27c1.647 6.409 18.167 62.293 93.013 76.8l132.37 132.428-32.973 32.964-98.816 5.811c-4.232.243-8.226 2.035-11.221 5.035l-78.2 78.234c-4.977 4.969-6.447 12.458-3.716 18.939s9.117 10.661 16.149 10.569h1.169l63.471-6.434c-6.581 10.294-5.116 23.78 3.522 32.421 8.639 8.641 22.125 10.109 32.42 3.53l-6.46 63.821c-.46 7.176 3.599 13.878 10.172 16.794 2.246 1.011 4.68 1.537 7.142 1.544 4.584-.016 8.972-1.859 12.194-5.12l78.217-78.217c3.003-2.993 4.799-6.988 5.043-11.221l5.786-98.842 32.964-32.964 132.327 132.335c4.222 25.295 16.013 48.717 33.818 67.174 11.913 12.219 26.79 21.141 43.179 25.899 2.497.609 5.058.918 7.629.922 11.548-.084 22.158-6.371 27.777-16.461 5.619-10.089 5.377-22.421-.633-32.282-4.381-7.132-11.375-12.27-19.49-14.319-.452-.137-44.681-15.181-27.998-109.338 18.654-104.627-40.627-159.471-70.579-179.951l52.053-52.053c8.916 5.288 19.05 8.172 29.414 8.372zm-56.704-79.949 81.015-19.055-19.226 81.51c-7.68 1.382-23.569.674-43.247-19.012-19.677-19.686-20.368-35.541-18.542-43.443zm-396.476-.58c-.944-3.843-.306-7.903 1.769-11.272s5.416-5.764 9.273-6.648c3.841-.963 7.908-.329 11.273 1.758 3.421 2.097 5.858 5.478 6.767 9.387.154.606 16.461 60.339 128.853 40.371 96.777-17.22 145.63 36.463 164.693 66.074l-21.837 21.837c-14.959-26.675-53.769-73.54-137.694-58.598-26.622 5.354-53.977 5.992-80.819 1.886-66.858-11.795-80.921-59.496-82.278-64.795zm103.715 84.13c20.89.863 41.811-.619 62.37-4.42 77.099-13.653 109.935 29.867 122.027 54.349l-67.243 67.243zm-104.064 263.347 78.413-78.276 79.659-4.685-74.957 74.965zm190.148 33.698-78.652 78.404 8.439-83.243 74.957-74.965zm135.176-210.227c24.508 12.22 67.985 45.227 54.366 122.027-3.806 20.547-5.3 41.456-4.454 62.336l-117.137-117.146zm100.523 130.21c-19.994 112.811 40.337 128.853 40.439 128.853 3.869.922 7.21 3.348 9.284 6.741 3.184 5.13 2.955 11.676-.58 16.571s-9.676 7.171-15.548 5.761c-13.366-4.007-25.484-11.369-35.2-21.385-15.955-16.705-26.311-37.965-29.628-60.826-.061-.338-.144-.671-.247-.998-3.851-26.559-3.132-53.581 2.125-79.898 14.831-83.627-32.017-122.607-58.581-137.6l21.871-21.871c29.611 19.014 83.319 67.842 66.065 164.652zm-332.536 77.662c-3.523 3.497-9.208 3.497-12.732 0-3.492-3.525-3.492-9.206 0-12.732l316.63-316.629c1.869 2.185 3.849 4.395 6.093 6.639s4.454 4.224 6.639 6.093z"/></g></g></svg>