<svg id="Layer_1" enable-background="new 0 0 512 512" height="512" viewBox="0 0 512 512" width="512" xmlns="http://www.w3.org/2000/svg"><g><path clip-rule="evenodd" d="m435.998 216.962c-19.247-44.192-46.063-90.596-74.665-129.289l-72.283 41.754c31.238 39.175 56.296 82.573 74.636 129.288l52.979-30.585c.057-.028.085-.057.142-.085z" fill="#6c392c" fill-rule="evenodd"/><path clip-rule="evenodd" d="m415.192 247.434-29.792 17.206c1.786 18.51.283 36.992-4.564 55.049-10.46 39.033-35.121 71.66-69.562 92.126-6.747 10.602-9.099 19.786-7.398 22.705l30.926 53.575c4.365 7.568 14.06 10.176 21.657 5.811 3.656-2.126 6.293-5.556 7.398-9.638 1.077-4.11.51-8.362-1.616-12.047l-19.701-34.101c-2.013-3.486-1.105-7.937 2.098-10.375 32.542-24.605 56.353-60.066 66.983-99.808 7.058-26.333 8.248-53.943 3.571-80.503zm-120.444-139.748 29.82-17.234c-20.636-17.32-45.127-30.104-71.49-37.163-39.77-10.658-82.375-7.767-119.934 8.107-3.713 1.559-8.022.113-10.035-3.374l-19.672-34.129c-4.394-7.568-14.116-10.148-21.685-5.783s-10.177 14.088-5.811 21.657l30.926 53.575c1.956 3.345 12.047 5.442 23.386 4.904 34.923-19.587 75.543-24.604 114.576-14.145 18.057 4.82 34.81 12.757 49.919 23.585z" fill="#895438" fill-rule="evenodd"/><path d="m453.516 217.245c-20.806-49.436-51.307-102.246-83.679-144.851-2.438-3.231-6.86-4.11-10.346-2.097l-20.268 11.707c-23.301-20.778-51.534-35.972-82.006-44.136-40.876-10.97-84.529-8.73-123.732 6.151l-16.214-28.119c-8.788-15.194-28.319-20.41-43.512-11.622-15.194 8.759-20.409 28.261-11.65 43.483l30.926 53.575c7.767 13.437 30.387 13.437 39.94 12.784.595-.028 1.162-.142 1.758-.283l165.287 286.328c-.425.425-.822.907-1.162 1.417l-.028.057c-6.463 9.723-16.242 28.006-8.816 40.876l30.926 53.575c5.896 10.205 16.611 15.902 27.638 15.902 5.386 0 10.857-1.361 15.874-4.252 7.37-4.252 12.643-11.14 14.854-19.333 2.183-8.22 1.049-16.809-3.203-24.179l-16.243-28.091c32.513-26.504 56.268-63.185 67.209-104.06 8.164-30.473 9.099-62.504 2.806-93.118l20.268-11.679c3.487-2.013 4.933-6.322 3.373-10.035zm-346.648-123.902-30.927-53.575c-4.365-7.568-1.758-17.292 5.811-21.657s17.291-1.786 21.685 5.783l19.672 34.129c2.013 3.487 6.321 4.933 10.035 3.374 37.559-15.874 80.164-18.766 119.934-8.107 26.362 7.059 50.854 19.843 71.49 37.163l-29.82 17.234c-15.109-10.828-31.862-18.765-49.918-23.584-39.033-10.46-79.654-5.443-114.576 14.145-11.339.537-21.431-1.561-23.386-4.905zm163.899 38.948c34.895 42.094 62.249 89.49 81.298 140.825.822 2.183 2.58 3.94 4.791 4.734.879.312 1.786.481 2.721.481 1.389 0 2.75-.368 3.997-1.077l6.435-3.713c.624 14.117-.907 28.205-4.621 42.01-8.277 30.954-26.532 57.401-52.016 75.77l-164.325-284.656c28.658-12.841 60.69-15.42 91.644-7.115 13.805 3.685 26.759 9.411 38.665 17.008l-6.435 3.713c-2.041 1.19-3.43 3.203-3.855 5.499-.425 2.325.198 4.706 1.701 6.521zm140.853 195.647c-10.63 39.742-34.441 75.203-66.983 99.808-3.203 2.438-4.11 6.888-2.098 10.375l19.701 34.101c2.126 3.685 2.693 7.937 1.616 12.047-1.106 4.082-3.742 7.512-7.398 9.638-7.597 4.365-17.292 1.757-21.657-5.811l-30.926-53.575c-1.701-2.919.652-12.104 7.398-22.705 34.441-20.466 59.102-53.093 69.562-92.126 4.847-18.057 6.35-36.539 4.564-55.049l29.792-17.207c4.678 26.56 3.488 54.17-3.571 80.504zm5.188-99.893c-.057.029-.085.057-.142.085l-52.979 30.585c-18.34-46.715-43.398-90.113-74.636-129.288l72.283-41.754c28.602 38.693 55.417 85.096 74.665 129.289z"/></g></svg>