<svg id="Capa_1" enable-background="new 0 0 512 512" viewBox="0 0 512 512" xmlns="http://www.w3.org/2000/svg"><g><g><g><g><path d="m481 142.607c30.819-30.819 30.819-80.787 0-111.607s-80.787-30.819-111.607 0c-3.122 3.122-5.912 6.449-8.401 9.925-89.262-43.581-200.014-28.296-274.189 45.878-74.174 74.174-89.46 184.926-45.878 274.189-3.476 2.49-6.802 5.279-9.925 8.401-30.819 30.82-30.819 80.788 0 111.607s80.787 30.819 111.607 0c3.122-3.122 5.912-6.449 8.401-9.925 89.262 43.581 200.014 28.296 274.189-45.878 73.236-73.26 90.026-183.331 45.878-274.189 3.476-2.49 6.803-5.279 9.925-8.401zm-395.414 330.045c-25.082-.687-45.552-21.157-46.238-46.239-.412-15.059 6.181-28.584 16.749-37.58 9.729 14.934 22.322 29.262 35.145 41.662 9.885 9.337 20.564 17.843 31.925 25.407-8.996 10.569-22.521 17.162-37.581 16.75zm370.317-349.485c-17.682-26.557-40.512-49.387-67.07-67.07 8.996-10.568 22.521-17.162 37.581-16.749 25.082.687 45.552 21.157 46.238 46.239.412 15.059-6.182 28.584-16.749 37.58z" fill="#57758d"/></g><g><circle cx="256" cy="256.002" fill="#c6573a" r="210"/></g><g><path d="m272 451.002c-115.98 0-210-94.02-210-210 0-56.471 22.295-107.729 58.556-145.47-45.592 38.521-74.556 96.109-74.556 160.47 0 115.98 94.02 210 210 210 59.509 0 113.231-24.759 151.444-64.53-36.567 30.895-83.825 49.53-135.444 49.53z" fill="#8d3d27"/></g><g><circle cx="329.933" cy="189.567" fill="#e68b00" r="60"/></g><g><circle cx="329.933" cy="189.567" fill="#fef2e2" r="30"/></g><g><path d="m346.185 203.315c-16.569 0-30-13.431-30-30 0-4.064.812-7.937 2.276-11.471-10.876 4.505-18.528 15.219-18.528 27.723 0 16.569 13.431 30 30 30 12.504 0 23.218-7.652 27.723-18.528-3.534 1.464-7.407 2.276-11.471 2.276z" fill="#ffe1ba"/></g><g><path d="m141.001 127.425-10.002-11.178c3.869-3.462 7.926-6.801 12.059-9.924l9.043 11.967c-3.803 2.874-7.538 5.948-11.1 9.135zm22.915-17.316-8.018-12.678c4.386-2.773 8.94-5.396 13.536-7.793l6.936 13.301c-4.227 2.205-8.418 4.618-12.454 7.17z" fill="#fff"/></g><g><circle cx="180.686" cy="323.814" fill="#e68b00" r="60"/></g><g><circle cx="180.686" cy="323.814" fill="#fef2e2" r="30"/></g><g><path d="m198.076 337.562c-16.569 0-30-13.431-30-30 0-4.064.812-7.937 2.276-11.471-10.876 4.505-18.528 15.219-18.528 27.723 0 16.569 13.431 30 30 30 12.504 0 23.218-7.652 27.723-18.528-3.534 1.464-7.407 2.276-11.471 2.276z" fill="#ffe1ba"/></g><g><path d="m350.383 356.584c-2.708-2.708-4.383-6.449-4.383-10.582 0-4.132 1.675-7.874 4.383-10.582l-42.426-42.426c-13.566 13.566-21.957 32.307-21.957 53.008s8.391 39.442 21.957 53.008z" fill="#f69500"/></g><g><path d="m325.574 381.393c-13.566-13.566-21.957-32.307-21.957-53.008 0-11.601 2.638-22.585 7.342-32.389l-3.002-3.002c-13.566 13.566-21.957 32.307-21.957 53.008s8.391 39.442 21.957 53.008z" fill="#e68b00"/></g><g><path d="m161.617 163.428c2.708 2.708 4.383 6.449 4.383 10.582 0 4.132-1.675 7.874-4.383 10.582l42.426 42.426c13.566-13.565 21.957-32.307 21.957-53.008s-8.391-39.442-21.957-53.008z" fill="#f69500"/></g><g><g><path d="m167.596 157.449-5.979 5.979c2.708 2.708 4.383 6.449 4.383 10.582 0 4.132-1.675 7.874-4.383 10.582l42.426 42.426c5.597-5.597 10.295-12.085 13.904-19.219z" fill="#e68b00"/></g></g><g><circle cx="121" cy="226.002" fill="#00d43d" r="15"/></g><g><circle cx="391" cy="286.002" fill="#00d43d" r="15"/></g><g><circle cx="256" cy="406.002" fill="#00d43d" r="15"/></g><g><circle cx="256" cy="106.002" fill="#00d43d" r="15"/></g></g></g><g><path d="m502.602 256.289c-.002-35.367-7.719-70.772-22.362-102.795 92.347-83.871-37.816-214.079-121.799-121.75-203.575-96.446-424.004 123.765-327.486 327.341-62.199 50.466-23.97 154.151 55.29 152.904 24.525.18 49.971-10.993 66.512-31.155 152.534 73.241 341.737-39.075 349.364-209.07l-14.985-.934c-5.754 162.846-196.504 270.45-339.036 191.115-23.548 39.436-80.014 47.305-112.402 14.149-33.179-32.378-25.294-88.808 14.154-112.354-104.49-199.222 113.85-417.567 313.246-313.107 23.548-39.436 80.014-47.306 112.402-14.148 33.178 32.377 25.296 88.807-14.154 112.353 17.003 32.995 26.302 70.122 26.242 107.451z"/><path d="m454.121 134.578c71.894-55.552-21.147-148.615-76.757-76.723 31.158 19.475 57.273 45.579 76.757 76.723zm2.516-22.993c-15.658-21.728-34.531-40.593-56.27-56.245 37.472-27.893 84.187 18.754 56.27 56.245z"/><path d="m73.593 424.256 11.029-10.183c-10.3-11.012-19.367-23.43-27.545-36.073-45.789 31.361-26.842 101.396 29.282 102.57 19.371.364 36.246-10.555 47.475-25.847-13.389-8.635-26.452-18.285-37.993-29.308l-10.308 10.91c7.947 7.503 16.429 14.512 25.302 20.911-37.461 27.906-84.199-18.754-56.271-56.246 5.863 8.122 12.241 15.921 19.029 23.266z"/><path d="m409.539 410.162c41.118-41.101 63.764-95.746 63.764-153.871s-22.645-112.77-63.764-153.872c-41.119-41.1-95.789-63.735-153.94-63.735s-112.82 22.635-153.94 63.735c-41.118 41.101-63.764 95.746-63.764 153.872s22.645 112.77 63.764 153.871c41.119 41.1 95.789 63.735 153.94 63.735s112.82-22.634 153.94-63.735zm-356.629-153.871c0-111.714 90.926-202.6 202.689-202.6s202.689 90.885 202.689 202.6-90.926 202.6-202.689 202.6-202.689-90.886-202.689-202.6z"/><path d="m329.601 227.342c20.697 0 37.535-16.831 37.535-37.518s-16.838-37.518-37.535-37.518-37.535 16.831-37.535 37.518 16.838 37.518 37.535 37.518zm0-60.029c12.418 0 22.521 10.099 22.521 22.511s-10.103 22.511-22.521 22.511-22.521-10.099-22.521-22.511c0-12.413 10.103-22.511 22.521-22.511z"/><path d="m329.601 257.357c37.255 0 67.563-30.295 67.563-67.533s-30.309-67.533-67.563-67.533-67.563 30.295-67.563 67.533 30.308 67.533 67.563 67.533zm0-120.059c28.975 0 52.549 23.563 52.549 52.526s-23.574 52.526-52.549 52.526-52.549-23.563-52.549-52.526 23.574-52.526 52.549-52.526z"/><path d="m180.214 286.618c-20.697 0-37.535 16.831-37.535 37.518s16.838 37.518 37.535 37.518 37.535-16.831 37.535-37.518-16.838-37.518-37.535-37.518zm0 60.03c-12.418 0-22.521-10.099-22.521-22.511s10.103-22.511 22.521-22.511 22.521 10.099 22.521 22.511-10.103 22.511-22.521 22.511z"/><path d="m180.214 256.604c-37.255 0-67.563 30.295-67.563 67.533s30.309 67.533 67.563 67.533 67.563-30.295 67.563-67.533-30.308-67.533-67.563-67.533zm0 120.059c-28.975 0-52.549-23.563-52.549-52.526 0-28.962 23.574-52.526 52.549-52.526s52.549 23.563 52.549 52.526c0 28.962-23.574 52.526-52.549 52.526z"/><path d="m360.686 335.747-53.081-53.057c-39.143 33.673-39.152 93.608 0 127.291l53.081-53.057c-2.36-2.677-7.911-6.469-7.495-10.588-.405-4.14 5.121-7.886 7.495-10.589zm-20.329 20.272-32.463 32.45c-19.565-23.54-19.565-60.725 0-84.266l32.463 32.45c-2.896 5.919-2.896 13.446 0 19.366z"/><path d="m158.008 174.258c.404 4.138-5.123 7.885-7.497 10.587l53.083 53.059c39.143-33.673 39.152-93.61 0-127.292l-53.081 53.057c2.359 2.678 7.911 6.47 7.495 10.589zm12.833-9.683 32.463-32.449c19.565 23.541 19.565 60.725 0 84.266l-32.464-32.45c2.897-5.919 2.897-13.447.001-19.367z"/><path d="m142.994 226.276c0-12.412-10.103-22.511-22.521-22.511s-22.521 10.099-22.521 22.511 10.103 22.511 22.521 22.511 22.521-10.098 22.521-22.511zm-30.028 0c0-4.138 3.367-7.504 7.507-7.504s7.507 3.366 7.507 7.504-3.367 7.504-7.507 7.504-7.507-3.366-7.507-7.504z"/><path d="m368.204 286.306c0 12.412 10.103 22.511 22.521 22.511s22.521-10.099 22.521-22.511-10.103-22.511-22.521-22.511-22.521 10.098-22.521 22.511zm30.028 0c0 4.138-3.367 7.504-7.507 7.504s-7.507-3.366-7.507-7.504 3.367-7.504 7.507-7.504 7.507 3.366 7.507 7.504z"/><path d="m278.12 406.365c0-12.412-10.103-22.511-22.521-22.511s-22.521 10.099-22.521 22.511 10.103 22.511 22.521 22.511 22.521-10.099 22.521-22.511zm-30.028 0c0-4.138 3.367-7.504 7.507-7.504s7.507 3.366 7.507 7.504-3.367 7.504-7.507 7.504c-4.14-.001-7.507-3.367-7.507-7.504z"/><path d="m255.599 128.728c12.418 0 22.521-10.099 22.521-22.511s-10.103-22.511-22.521-22.511-22.521 10.099-22.521 22.511 10.103 22.511 22.521 22.511zm0-30.014c4.14 0 7.507 3.366 7.507 7.504s-3.367 7.504-7.507 7.504-7.507-3.366-7.507-7.504c0-4.139 3.367-7.504 7.507-7.504z"/></g></g><g/><g/><g/><g/><g/><g/><g/><g/><g/><g/><g/><g/><g/><g/><g/></svg>