<svg height="512" viewBox="0 0 128 128" width="512" xmlns="http://www.w3.org/2000/svg"><g id="Beef"><path d="m72.43167 61.35742c-8.33252-.28662-14.98486 3.23437-19.37793 5.5664-.69726.37061-1.34668.71534-1.94726 1.01563-4.15332 2.07422-16.07276 3.82617-31.88574 4.6875-7.40186.40332-12.53028 2.32031-15.24366 5.69824a8.27558 8.27558 0 0 0 -1.92968 5.9209v20.91016a1.99807 1.99807 0 0 0 .17236.8125c5.34717 12.02925 20.71631 14.50195 36.14062 14.50195 5.88331 0 11.77588-.36035 17.12207-.68652 4.40186-.26954 8.55909-.52344 11.99122-.53516 18.57519-.06445 38.50976-2.74023 46.73144-4.62012 8.875-2.02832 11.52734-8.46 11.63574-8.7334a1.99776 1.99776 0 0 0 .1416-.73925v-23.71289c0-15.8545-33.55078-19.38965-53.55078-20.08594z" fill="#805333"/><path d="m125.98245 81.44336c0-15.8545-33.55078-19.38965-53.55078-20.08594-8.33252-.28662-14.98486 3.23437-19.37793 5.5664-.69726.37061-1.34668.71534-1.94726 1.01563-4.15332 2.07422-16.07276 3.82617-31.88574 4.6875-7.40186.40332-12.53028 2.32031-15.24366 5.69824a8.27558 8.27558 0 0 0 -1.92968 5.9209v2.02063c.205.21551.40338.42279.5874.61316a34.70632 34.70632 0 0 0 21.71142 10.17969c10.91407 1.01953 22.51123 1.53222 34.604 1.53222q5.7356 0 11.61426-.15429c12.60742-.32813 27.20214-1.03516 40.86718-5.30079 3.99121-1.25488 9.77442-3.35253 13.89161-7.07519a1.98629 1.98629 0 0 0 .34863-.41309c.10913-.17236.20556-.34308.31054-.51489z" fill="#cb8252"/><path d="m102.75 39.31543a2.00074 2.00074 0 0 1 -1.71289-3.02979c1.09082-1.81689.41309-3.02832-1.79883-6.02783-1.542-2.09033-3.29-4.45947-3.81543-7.61426-1.30078-7.7959 6.11817-11.60254 6.43457-11.76074a2.00024 2.00024 0 0 1 1.7959 3.57471c-.23047.11816-5.09375 2.67968-4.28515 7.52832.36816 2.20947 1.751 4.08447 3.08886 5.89746 2.03614 2.76025 4.56934 6.19482 2.00977 10.46093a1.99942 1.99942 0 0 1 -1.7168.9712z" fill="#a1a1aa"/><path d="m64.17874 36.17334a2.00074 2.00074 0 0 1 -1.71289-3.02979c1.09034-1.81689.41358-3.02832-1.79882-6.02734-1.54249-2.09034-3.29053-4.46-3.81592-7.61475-1.29932-7.7959 6.11865-11.60205 6.43506-11.76025a2.00024 2.00024 0 0 1 1.79683 3.57422c-.21289.10888-5.09619 2.67089-4.28662 7.5288.36816 2.209 1.75146 4.084 3.08936 5.89747 2.03613 2.75976 4.56933 6.19482 2.00976 10.46044a2 2 0 0 1 -1.71676.9712z" fill="#a1a1aa"/><path d="m25.60745 46.31543a2.00087 2.00087 0 0 1 -1.71289-3.0293c1.09034-1.81738.41309-3.02881-1.79931-6.02783-1.542-2.09082-3.29-4.46-3.81543-7.61475-1.29982-7.7959 6.11865-11.60255 6.43506-11.76074a2.00013 2.00013 0 0 1 1.79541 3.57471c-.23.11816-5.09326 2.67968-4.28516 7.52832.36816 2.20947 1.75147 4.08447 3.08936 5.89795 2.03564 2.75976 4.56933 6.19433 2.00976 10.46a1.99884 1.99884 0 0 1 -1.7168.97164z" fill="#a1a1aa"/><g fill="#805333"><path d="m96.67057 63.58807c-2.18061-.3584-4.38483-.66455-6.58161-.92535l27.97717 27.97747a34.68849 34.68849 0 0 0 3.69934-1.95684z"/><path d="m57.49362 64.69134c-1.386.63556-2.64776 1.28516-3.77545 1.8808l31.20435 31.20486q2.31876-.1732 4.66882-.41229a1.98226 1.98226 0 0 0 -.55908-1.13422z"/><path d="m38.33121 70.90539 27.62335 27.62335c1.53168-.02459 3.06476-.05078 4.60993-.09124.30676-.008.62-.01752.92907-.026l-28.27874-28.27875c-1.47682.27166-3.11695.52905-4.88361.77264z"/><path d="m20.0065 72.58068 25.80219 25.80176q2.87347.09248 5.79584.13953l-26.28681-26.28638c-1.71161.12671-3.48627.24141-5.31122.34509z"/><path d="m4.83829 77.41247 19.66034 19.66034c2.02954.1886 4.08905.35468 6.16443.50818l-22.49306-22.49299a12.89773 12.89773 0 0 0 -3.33171 2.32447z"/><path d="m100.29593 77.03808c0-4.16992-6.57129-6.06933-12.67773-6.06933a29.06059 29.06059 0 0 0 -3.19861.17907l-9.37927-9.68414c-.8888-.04022-1.76459-.0769-2.60865-.10626a28.03225 28.03225 0 0 0 -3.00287.0592l10.3672 10.72229c-2.83606.97962-4.85559 2.58972-4.85559 4.89917 0 4.1709 6.57129 6.07031 12.67774 6.07031.89117 0 1.79065-.04553 2.67975-.12762l12.06938 12.46783q2.2846-.46929 4.55432-1.04412l-11.91967-12.32477c3.06335-.9621 5.294-2.61481 5.294-5.04163zm-12.67773 2.07031c-5.03907 0-8.0127-1.38183-8.61133-2.07031.59863-.68847 3.57226-2.06933 8.61133-2.06933s8.01269 1.38086 8.61133 2.06933c-.59864.68848-3.57227 2.07031-8.61133 2.07031z"/></g></g></svg>