<svg height="512" viewBox="0 0 64 64" width="512" xmlns="http://www.w3.org/2000/svg"><g id="c"><path d="m10 25c.471-1.589 4.241-7.166 5.582-8.723 1.513-1.758 2.418-3.957 2.418-6.277 4 1 4 5 7 6 5-5 0-9 5-12l2-1c0 .586.048 1.169.141 1.743.309 1.895 1.284 3.606 2.573 5.03 1.224 1.352 2.536 3.227 3.286 6.227 2-3 5-2 6-6 4.575 2.712 1 7 6 12l-13 9z" fill="#d1303d"/><path d="m12.95 23.606c1.226-2.034 3.198-4.922 4.147-6.025 1.125-1.307 1.946-2.801 2.422-4.374.304.352.602.771.943 1.266.849 1.229 1.906 2.759 3.904 3.425l1.173.391.874-.874c3.086-3.086 3.086-6.021 3.086-8.164 0-1.6 0-2.358.905-3.104.487 1.752 1.451 3.45 2.826 4.97.955 1.056 2.142 2.622 2.828 5.37l1.097 4.386 2.508-3.762c.575-.863 1.272-1.233 2.154-1.701.816-.434 1.807-.96 2.649-1.94.169.508.27 1.129.391 1.938.251 1.688.576 3.874 2.2 6.197l-10.479 7.255-23.63-5.252z" fill="#f3722c"/><g fill="#e5581a"><path d="m16.999 22.052c-.197 0-.396-.058-.57-.179-.453-.315-.565-.939-.25-1.393.495-.711 1.188-1.679 1.678-2.247.45-.524.86-1.082 1.219-1.657.17-.272.46-.446.78-.469.332-.011.632.112.837.358.83.997 1.693 1.675 2.715 2.131.505.225.731.816.506 1.32s-.816.734-1.32.506c-.93-.415-1.771-.982-2.549-1.724-.213.286-.438.565-.671.838-.34.395-.891 1.135-1.552 2.086-.194.279-.506.429-.822.429z"/><path d="m35.376 23c-.448 0-.855-.303-.969-.758l-1.258-5.03c-.328-1.311-.799-2.265-1.282-2.99-.378 1.186-.934 2.294-1.676 3.353-.316.451-.94.563-1.393.244-.452-.316-.562-.94-.244-1.393.975-1.39 1.565-2.884 1.805-4.566.056-.391.336-.712.715-.82.377-.11.786.015 1.04.317.122.145.246.286.374.427.879.972 1.968 2.41 2.601 4.944l1.258 5.03c.135.535-.191 1.078-.728 1.212-.081.021-.163.03-.243.03z"/><path d="m39.999 21.211c-.19 0-.383-.055-.554-.168-.46-.307-.584-.927-.277-1.387l1.328-1.992c.407-.611.873-.881 1.6-1.271.281-.151.619-.16.908-.02.288.14.492.408.549.724.097.538.235 1.066.412 1.571.183.521-.092 1.092-.612 1.274-.521.188-1.093-.092-1.274-.612-.034-.096-.066-.191-.098-.289l-1.148 1.724c-.192.289-.51.445-.833.445z"/></g><path d="m32.955 31.783-22.955-6.783" fill="#d1303d"/><path d="m50 47v7.371c0 1.729.402 3.434 1.176 4.98l.824 1.649h-8l.824-1.649c.773-1.546 1.176-3.251 1.176-4.98v-7.371z" fill="#8c6239"/><path d="m46 47.94h4v2h-4z" fill="#7f5634"/><path d="m18 47v7.371c0 1.729.402 3.434 1.176 4.98l.824 1.649h-8l.824-1.649c.773-1.546 1.176-3.251 1.176-4.98v-7.371z" fill="#8c6239"/><path d="m14 48h4v2h-4z" fill="#7f5634"/><path d="m29 39c0-1.346-.892-2.471-2.113-2.851.072-.372.113-.756.113-1.149 0-2.114-1.096-3.969-2.748-5.037.46-.527.748-1.208.748-1.963 0-1.657-1.343-3-3-3-.115 0-.224.021-.336.034-.815-2.347-3.04-4.034-5.664-4.034s-4.849 1.687-5.664 4.034c-.112-.013-.221-.034-.336-.034-1.657 0-3 1.343-3 3 0 .754.288 1.435.748 1.963-1.652 1.069-2.748 2.924-2.748 5.037 0 .393.04.777.113 1.149-1.221.38-2.113 1.505-2.113 2.851 0 .988.484 1.857 1.221 2.404-.14.509-.221 1.042-.221 1.596 0 3.314 2.686 6 6 6 1.094 0 2.117-.298 3-.809.883.512 1.906.809 3 .809s2.117-.298 3-.809c.883.512 1.906.809 3 .809 3.314 0 6-2.686 6-6 0-.554-.081-1.087-.221-1.596.737-.547 1.221-1.416 1.221-2.404z" fill="#008e47"/><path d="m61 39c0-1.346-.892-2.471-2.113-2.851.072-.372.113-.756.113-1.149 0-2.114-1.096-3.969-2.748-5.037.46-.527.748-1.208.748-1.963 0-1.657-1.343-3-3-3-.115 0-.224.021-.336.034-.815-2.347-3.04-4.034-5.664-4.034s-4.849 1.687-5.664 4.034c-.112-.013-.221-.034-.336-.034-1.657 0-3 1.343-3 3 0 .754.288 1.435.748 1.963-1.652 1.069-2.748 2.924-2.748 5.037 0 .393.04.777.113 1.149-1.221.38-2.113 1.505-2.113 2.851 0 .988.484 1.857 1.221 2.404-.14.509-.221 1.042-.221 1.596 0 3.314 2.686 6 6 6 1.094 0 2.117-.298 3-.809.883.512 1.906.809 3 .809s2.117-.298 3-.809c.883.512 1.906.809 3 .809 3.314 0 6-2.686 6-6 0-.554-.081-1.087-.221-1.596.737-.547 1.221-1.416 1.221-2.404z" fill="#008e47"/><path d="m34 48v6.371c0 1.729.402 3.434 1.176 4.98l.824 1.649h-8l.824-1.649c.773-1.546 1.176-3.251 1.176-5.98v-5.371z" fill="#8c6239"/><path d="m59 16c0 1.657-3 4-3 4s-1-2.343-1-4 3-4 3-4 1 2.343 1 4z" fill="#f3722c"/><path d="m11 14c0 1.657-3 4-3 4s-1-2.343-1-4 3-4 3-4 1 2.343 1 4z" fill="#f3722c"/><path d="m3 62c-.553 0-1-.447-1-1s.447-1 1-1h57.999c.553 0 1 .446 1 .999s-.447 1-1 1h-57.999z" fill="#754c24"/><path d="m30 48h4v2h-4z" fill="#7f5634"/><path d="m45 39c0-1.346-.892-2.471-2.113-2.851.072-.372.113-.756.113-1.149 0-2.114-1.096-3.969-2.748-5.037.46-.527.748-1.208.748-1.963 0-1.657-1.343-3-3-3-.115 0-.224.021-.336.034-.815-2.347-3.04-4.034-5.664-4.034s-4.849 1.687-5.664 4.034c-.112-.013-.221-.034-.336-.034-1.657 0-3 1.343-3 3 0 .754.288 1.435.748 1.963-1.652 1.069-2.748 2.924-2.748 5.037 0 .393.04.777.113 1.149-1.221.38-2.113 1.505-2.113 2.851 0 .988.484 1.857 1.221 2.404-.14.509-.221 1.042-.221 1.596 0 3.314 2.686 6 6 6 1.094 0 2.117-.298 3-.809.883.512 1.906.809 3 .809s2.117-.298 3-.809c.883.512 1.906.809 3 .809 3.314 0 6-2.686 6-6 0-.554-.081-1.087-.221-1.596.737-.547 1.221-1.416 1.221-2.404z" fill="#009d54"/><path d="m61.097 31c0 2.209-1.791 4-4 4s-4-1.791-4-4c0-2 1-2 2-6 .125-.501 1.778 3.501 1.903 3 1-4 3.097-5 3.097-5s-.547 1.36-.072 3c.523 1.806 1.072 3.952 1.072 5z" fill="#d1303d"/><path d="m59 30.903c0 1.078-.874 1.951-1.951 1.951s-1.951-.874-1.951-1.951c0-.976.488-.976.976-2.927.061-.245.867 1.708.928 1.464.488-1.951 1.511-2.439 1.511-2.439s-.267.663-.035 1.464c.255.881.523 1.928.523 2.439z" fill="#ed6a30"/><path d="m36.097 37c0 2.209-1.791 4-4 4s-4-1.791-4-4c0-2 1-2 2-6 .125-.501 1.778 3.501 1.903 3 1-4 3.097-5 3.097-5s-.547 1.36-.072 3c.523 1.806 1.072 3.952 1.072 5z" fill="#d1303d"/><path d="m34 36.903c0 1.078-.874 1.951-1.951 1.951s-1.951-.874-1.951-1.951c0-.976.488-.976.976-2.927.061-.245.867 1.708.928 1.464.488-1.951 1.511-2.439 1.511-2.439s-.267.663-.035 1.464c.255.881.523 1.928.523 2.439z" fill="#ed6a30"/><path d="m3.097 28c0 2.209 1.791 4 4 4s4-1.791 4-4c0-2-1-2-2-6-.125-.501-1.778 3.501-1.903 3-1-4-3.097-5-3.097-5s.547 1.36.072 3c-.523 1.806-1.072 3.952-1.072 5z" fill="#d1303d"/><path d="m5.194 27.903c0 1.078.874 1.951 1.951 1.951s1.951-.874 1.951-1.951c0-.976-.488-.976-.976-2.927-.061-.245-.867 1.708-.928 1.464-.488-1.951-1.511-2.439-1.511-2.439s.267.663.035 1.464c-.255.881-.523 1.928-.523 2.439z" fill="#ed6a30"/></g><g id="d"><path d="m39.999 21.211c.323 0 .641-.156.833-.445l1.148-1.724c.031.098.063.193.098.289.182.521.753.801 1.274.612.521-.183.795-.753.612-1.274-.177-.505-.315-1.033-.412-1.571-.057-.315-.261-.584-.549-.724-.289-.141-.627-.132-.908.02-.727.39-1.192.659-1.6 1.271l-1.328 1.992c-.307.46-.183 1.08.277 1.387.171.113.363.168.554.168z"/><path d="m62 31c0-.958-.374-2.733-1.111-5.278-.366-1.266.038-2.345.039-2.349.191-.476-.008-1.019-.461-1.258-.456-.239-1.016-.096-1.299.33-.065.098-1.256 1.9-2.274 4.577-.931-2.73-1.079-3.079-1.913-3.052-.122.005-.238.039-.348.088-.103-.017-.205-.036-.308-.045-.908-1.93-2.65-3.312-4.693-3.804-2.184-2.226-2.244-3.993-2.295-5.699-.051-1.763-.109-3.761-2.827-5.371-.271-.162-.605-.185-.895-.062-.292.122-.509.374-.585.681-.465 1.856-1.368 2.337-2.619 3.001-.632.335-1.314.697-1.975 1.256-.879-2.397-2.084-3.921-2.981-4.913-1.269-1.401-2.073-2.965-2.327-4.52-.085-.523-.128-1.056-.128-1.582 0-.347-.18-.668-.475-.851-.295-.184-.663-.199-.973-.044l-2.067 1.037c-2.985 1.791-2.985 4.084-2.985 6.107 0 1.822 0 3.552-1.74 5.545-.732-.44-1.248-1.188-1.829-2.027-.955-1.382-2.143-3.102-4.688-3.737-.298-.076-.614-.008-.857.182s-.385.48-.385.788c0 1.996-.772 3.993-2.176 5.624-.928 1.078-3.247 4.376-4.669 6.825-.061-.216-.122-.444-.184-.691-.107-.43-.508-.768-.951-.787-.835-.027-.982.321-1.913 3.052-1.019-2.677-2.209-4.479-2.274-4.577-.282-.425-.839-.564-1.29-.33-.452.234-.655.775-.473 1.251.004.011.408 1.09.042 2.355-.737 2.545-1.111 4.32-1.111 5.278 0 1.863 1.036 3.472 2.551 4.332-.356.84-.551 1.742-.551 2.668 0 .178.007.357.021.537-1.235.697-2.021 2.003-2.021 3.463 0 1.033.407 2.022 1.113 2.757-.075.415-.113.831-.113 1.243 0 3.859 3.141 7 7 7 1.036 0 2.062-.234 3-.681v5.052c0 1.565-.37 3.133-1.07 4.533l-.548 1.096h-8.384c-.553 0-1 .447-1 1s.447 1 1 1h57.999c.553 0 1-.448 1-1.001s-.447-1-1-1h-8.381l-.547-1.095c-.7-1.4-1.07-2.968-1.07-4.533v-5.052c.937.446 1.964.681 3 .681 3.859 0 7-3.141 7-7 0-.412-.038-.828-.113-1.243.706-.734 1.113-1.724 1.113-2.757 0-1.46-.785-2.766-2.021-3.463.014-.18.021-.359.021-.537v-.025c1.207-.914 2-2.348 2-3.975zm-45.66-14.071c1.389-1.613 2.271-3.532 2.559-5.518 1.071.589 1.715 1.521 2.387 2.493.844 1.221 1.717 2.483 3.398 3.044.358.122.756.026 1.023-.241 2.793-2.793 2.793-5.379 2.793-7.457 0-1.917 0-3.184 1.947-4.355l.657-.328c.015.112.031.225.049.337.316 1.938 1.291 3.853 2.819 5.54.953 1.055 2.308 2.803 3.058 5.799.096.385.409.676.799.743.395.066.783-.101 1.003-.431.716-1.073 1.591-1.538 2.518-2.03 1.113-.591 2.346-1.245 3.138-2.908.788.811.813 1.691.851 2.953.045 1.542.102 3.387 1.587 5.518-2.282.356-4.259 1.822-5.249 3.925-.597.049-1.168.24-1.681.539-.501-.291-1.062-.49-1.669-.539-.478-1.011-1.191-1.864-2.048-2.53l-1.189-4.756c-.633-2.534-1.722-3.973-2.601-4.944-.128-.141-.252-.282-.374-.427-.254-.303-.663-.428-1.04-.317-.379.108-.659.43-.715.82-.239 1.683-.83 3.177-1.805 4.566-.317.452-.208 1.076.244 1.393.452.319 1.076.207 1.393-.244.742-1.059 1.298-2.167 1.676-3.353.483.726.954 1.68 1.282 2.99l.765 3.06c-.613-.175-1.255-.272-1.915-.272-2.724 0-5.18 1.585-6.326 4.013-.607.049-1.168.248-1.669.539-.513-.3-1.083-.49-1.681-.539-.759-1.613-2.104-2.84-3.716-3.491.308-.419.573-.762.765-.984.233-.272.458-.552.671-.838.778.741 1.619 1.309 2.549 1.724.504.229 1.095-.002 1.32-.506.226-.504 0-1.096-.506-1.32-1.021-.456-1.885-1.134-2.715-2.131-.205-.246-.505-.369-.837-.358-.32.022-.61.196-.78.469-.358.575-.769 1.133-1.219 1.657-.394.458-.916 1.169-1.364 1.802-.164-.012-.326-.036-.492-.036-.745 0-1.466.128-2.15.349.959-1.428 1.923-2.763 2.489-3.421zm26.25 20.174c.844.264 1.41 1.026 1.41 1.897 0 .632-.298 1.216-.817 1.602-.332.246-.479.671-.368 1.069.123.445.186.893.186 1.329 0 2.757-2.243 5-5 5-.873 0-1.737-.233-2.498-.675-.155-.09-.329-.135-.502-.135s-.347.045-.502.135c-1.521.883-3.475.883-4.996 0-.311-.18-.693-.18-1.004 0-.761.441-1.625.675-2.498.675-2.757 0-5-2.243-5-5 0-.437.062-.884.186-1.329.11-.398-.036-.823-.368-1.069-.52-.386-.817-.97-.817-1.602 0-.871.566-1.634 1.41-1.897.486-.151.781-.645.684-1.145-.062-.321-.094-.644-.094-.958 0-1.701.856-3.27 2.291-4.197.243-.157.407-.413.447-.7.04-.288-.046-.578-.236-.797-.229-.263-.502-.702-.502-1.306 0-1.103.897-2 1.999-2 .036 0 .07.008.104.013.008 0 .111.015.119.015.461.061.904-.224 1.058-.665.699-2.011 2.596-3.362 4.72-3.362s4.021 1.352 4.72 3.362c.153.443.597.726 1.058.665.008 0 .111-.014.119-.015.034-.005.068-.012.104-.013 1.103 0 2 .897 2 2 0 .604-.272 1.043-.502 1.306-.19.219-.276.509-.236.797.04.287.204.543.447.7 1.435.928 2.291 2.496 2.291 4.197 0 .314-.031.637-.094.958-.098.5.197.993.684 1.145zm2.41 17.269c0 1.565-.37 3.133-1.07 4.533l-.547 1.095h-6.764l-.548-1.095c-.7-1.4-1.07-2.968-1.07-4.533v-5.052c.937.447 1.964.681 3 .681.702 0 1.378-.106 2.018-.299 1.618.486 3.429.358 4.982-.381v5.052zm-24.382 5.629-.548-1.095c-.7-1.4-1.07-2.968-1.07-4.533v-5.052c.937.446 1.964.681 3 .681.671 0 1.323-.118 1.955-.306.647.198 1.334.306 2.045.306 1.036 0 2.062-.233 3-.681v5.052c0 1.565-.37 3.133-1.07 4.533l-.548 1.095zm9 0 .1-.201c.838-1.677 1.281-3.554 1.281-5.428v-4.46c.663.094 1.337.094 2 0v4.46c0 1.874.443 3.751 1.281 5.428l.1.201h-4.763zm-24.745-36.165c.422.987.842 2.146 1.156 3.406.107.43.508.768.951.787.841.023.983-.324 1.922-3.076.212.511.408.904.578 1.244.356.713.52 1.039.52 1.803 0 1.654-1.346 3-3 3s-3-1.346-3-3c0-.406.118-1.477.873-4.164zm7.626 23.489c-.763.441-1.626.675-2.499.675-2.757 0-5-2.243-5-5 0-.44.062-.89.185-1.335.109-.4-.04-.827-.375-1.072-.515-.376-.81-.956-.81-1.593 0-.871.565-1.633 1.407-1.895.485-.151.78-.643.686-1.142-.062-.324-.093-.648-.093-.964 0-.717.16-1.416.459-2.055.18.02.355.055.541.055 2.757 0 5-2.243 5-5 0-1.213-.327-1.888-.71-2.654.699-2.001 2.589-3.346 4.71-3.346s4.02 1.35 4.715 3.357c.15.435.586.714 1.034.669l.148-.017c.194-.024.406.006.615.064-.318.573-.512 1.225-.512 1.926 0 .6.14 1.189.401 1.728-1.519 1.319-2.401 3.228-2.401 5.272 0 .178.007.357.021.537-1.236.698-2.021 2.004-2.021 3.463 0 1.045.399 2.02 1.115 2.76-.077.414-.115.829-.115 1.24 0 1.902.765 3.628 2.002 4.891-.523-.107-1.033-.295-1.501-.566-.309-.18-.693-.18-1.002 0-1.525.883-3.473.883-4.998 0-.309-.18-.693-.18-1.002 0zm1.22 12.474c.838-1.677 1.281-3.554 1.281-5.428v-4.462c.663.094 1.337.094 2 0v4.462c0 1.874.443 3.751 1.281 5.428l.1.201h-4.763zm36.562 0 .1.2h-4.763l.1-.2c.838-1.677 1.281-3.554 1.281-5.428v-4.462c.663.094 1.337.094 2 0v4.462c0 1.874.443 3.751 1.281 5.428zm8.312-22.693c.842.262 1.407 1.023 1.407 1.895 0 .637-.295 1.217-.81 1.593-.335.245-.484.672-.375 1.072.123.445.185.895.185 1.335 0 2.757-2.243 5-5 5-.873 0-1.736-.233-2.499-.675-.309-.18-.693-.18-1.002 0-1.525.883-3.473.883-4.998 0-.309-.18-.693-.18-1.002 0-.468.27-.977.458-1.5.565 1.236-1.263 2.001-2.988 2.001-4.89 0-.411-.038-.826-.115-1.24.716-.74 1.115-1.715 1.115-2.76 0-1.459-.785-2.765-2.021-3.463.015-.18.021-.359.021-.537 0-2.045-.883-3.953-2.401-5.272.262-.538.401-1.128.401-1.728 0-.701-.194-1.353-.513-1.927.207-.057.418-.087.615-.063l.148.017c.446.038.884-.234 1.034-.669.695-2.008 2.59-3.357 4.715-3.357s4.02 1.35 4.715 3.357c.142.41.539.672.96.663-.344 1.082-.669 1.732-.944 2.282-.392.784-.73 1.461-.73 2.697 0 2.757 2.243 5 5 5 .312 0 .616-.037.913-.092-.003.019-.002.037-.005.056-.095.499.2.99.686 1.142zm-1.593-3.105c-1.654 0-3-1.346-3-3 0-.764.163-1.09.52-1.803.17-.34.366-.733.578-1.244.938 2.752 1.08 3.096 1.922 3.076.443-.02.843-.356.95-.787.314-1.257.735-2.416 1.157-3.404.755 2.686.873 3.756.873 4.162 0 1.654-1.346 3-3 3z"/><path d="m35.928 29.373c.191-.476-.008-1.019-.461-1.258-.455-.24-1.015-.096-1.299.33-.065.098-1.256 1.9-2.274 4.577-.931-2.73-1.078-3.077-1.913-3.052-.443.02-.843.356-.95.787-.474 1.894-.932 2.809-1.3 3.545-.392.784-.73 1.461-.73 2.697 0 2.757 2.243 5 5 5s5-2.243 5-5c0-.958-.374-2.733-1.111-5.278-.366-1.266.038-2.345.039-2.349zm-3.928 10.627c-1.654 0-3-1.346-3-3 0-.764.163-1.09.52-1.803.17-.34.366-.733.578-1.244.938 2.752 1.072 3.096 1.922 3.076.443-.02.843-.356.95-.787.314-1.257.735-2.416 1.157-3.404.755 2.686.873 3.756.873 4.162 0 1.654-1.346 3-3 3z"/><path d="m58.25 11.031c-.305-.076-.62-.011-.865.181-.565.441-3.385 2.746-3.385 4.788 0 1.841 1.036 4.289 1.08 4.393.122.285.37.498.67.576.083.021.167.031.25.031.221 0 .437-.073.615-.212.565-.441 3.385-2.746 3.385-4.788 0-1.841-1.036-4.289-1.08-4.393-.122-.285-.37-.498-.67-.576zm-1.809 7.247c-.23-.739-.441-1.609-.441-2.278 0-.5.698-1.429 1.559-2.278.23.739.441 1.609.441 2.278 0 .5-.698 1.429-1.559 2.278z"/><path d="m10.25 9.031c-.304-.075-.621-.01-.865.181-.565.441-3.385 2.746-3.385 4.788 0 1.841 1.036 4.289 1.08 4.393.122.285.37.498.67.576.083.021.167.031.25.031.221 0 .437-.073.615-.212.565-.441 3.385-2.746 3.385-4.788 0-1.841-1.036-4.289-1.08-4.393-.122-.285-.37-.498-.67-.576zm-1.809 7.247c-.23-.739-.441-1.609-.441-2.278 0-.5.698-1.429 1.559-2.278.23.739.441 1.609.441 2.278 0 .5-.698 1.429-1.559 2.278z"/></g></svg>