<svg id="Layer_1" enable-background="new 0 0 512 512" height="512" viewBox="0 0 512 512" width="512" xmlns="http://www.w3.org/2000/svg"><g id="XMLID_1_"><g id="XMLID_4017_"><path id="XMLID_1630_" d="m5 175 226-85-226-85z" fill="#ffdca4"/><path id="XMLID_2430_" d="m89.3 36.7c-5.4 16.8-8.3 34.7-8.3 53.3s2.9 36.5 8.3 53.3l141.7-53.3z" fill="#ffc96f"/><path id="XMLID_2428_" d="m169.1 66.7c-2 7.4-3.1 15.2-3.1 23.3s1.1 15.9 3.1 23.3l61.9-23.3z" fill="#ffb234"/><path id="XMLID_2427_" d="m507 175-226-85 226-85z" fill="#ffdca4"/><path id="XMLID_2426_" d="m422.7 36.7c5.4 16.8 8.3 34.7 8.3 53.3s-2.9 36.5-8.3 53.3l-141.7-53.3z" fill="#ffc96f"/><path id="XMLID_2425_" d="m342.9 66.7c2 7.4 3.1 15.2 3.1 23.3s-1.1 15.9-3.1 23.3l-61.9-23.3z" fill="#ffb234"/><g id="XMLID_1624_"><path id="XMLID_2424_" d="m251 0h10v45h-10z" fill="#c22945"/></g><path id="XMLID_1635_" d="m296 135 30 332h-140l30-332z" fill="#69bdfb"/><path id="XMLID_2456_" d="m278.9 135 17.1 332h-80l17.1-332z" fill="#9cd3fc"/><path id="XMLID_1634_" d="m81 467 46-31 16-35 88-49h65l47.7 54.1 61.2 17.9 26.1 43-175 20z" fill="#e36415"/><path id="XMLID_368_" d="m404.9 424 26.1 43h-183l17.6-21-17.6-28.6-17-65.4h65l47.7 54.1z" fill="#b24e10"/><path id="XMLID_1633_" d="m296 65h-80c0-22.1 17.9-40 40-40 22.1 0 40 17.9 40 40z" fill="#d84861"/><path id="XMLID_1631_" d="m231 65h50v50h-50z" fill="#ffc96f"/><circle id="XMLID_2423_" cx="256" cy="90" fill="#ffb234" r="12.5"/><path id="XMLID_1628_" d="m271 352h-30v-25c0-8.3 6.7-15 15-15 8.3 0 15 6.7 15 15z" fill="#3279af"/><path id="XMLID_1627_" d="m316 115h-120c0 11 9 20 20 20h80c11 0 20-9 20-20z" fill="#d84861"/><path id="XMLID_1626_" d="m211.5 185h89l-1.8-20h-85.4z" fill="#c22945"/><path id="XMLID_1625_" d="m205.2 255h101.6l-1.8-20h-98z" fill="#c22945"/><path id="XMLID_1732_" d="m230.6 185h50.8l-1-20h-48.8z" fill="#d84861"/><path id="XMLID_1735_" d="m226.9 255h58.2l-1.1-20h-56z" fill="#d84861"/><path id="XMLID_51_" d="m296 352-48 65.4-105-16.4 88-49z" fill="#ef8039"/><path id="XMLID_318_" d="m404.9 424-139.3 22 78.1-39.9z" fill="#ef8039"/><path id="XMLID_225_" d="m127 436 31.5 31h-77.5z" fill="#b24e10"/><g id="XMLID_1619_"><path id="XMLID_53_" d="m251 200h10v20h-10z" fill="#3279af"/></g><g id="XMLID_1618_"><path id="XMLID_2381_" d="m251 65h10v50h-10z" fill="#c22945"/></g><g id="XMLID_2377_"><path id="XMLID_2380_" d="m226 65h10v50h-10z" fill="#c22945"/></g><g id="XMLID_2378_"><path id="XMLID_2379_" d="m276 65h10v50h-10z" fill="#c22945"/></g><g id="XMLID_1632_"><path id="XMLID_2382_" d="m201 60h110v10h-110z" fill="#e17084"/></g><path id="XMLID_1636_" d="m5 467h502v40h-502z" fill="#3279af"/><path id="XMLID_2353_" d="m5 487h502v20h-502z" fill="#275e87"/></g></g></svg>