<svg clip-rule="evenodd" fill-rule="evenodd" height="512" image-rendering="optimizeQuality" shape-rendering="geometricPrecision" text-rendering="geometricPrecision" viewBox="0 0 1707 1707" width="512" xmlns="http://www.w3.org/2000/svg"><g id="Layer_x0020_1"><g id="_245261464"><path d="m1210 1707h-630c-3 0-6-1-9-2l-144-69 10 46c1 6-1 13-4 17-4 5-10 8-16 8h-273c-11 0-20-9-20-20v-1091c0-6 3-11 7-15 4-3 9-5 15-5l70 4-88-132c-2-3-4-7-4-11v-417c0-11 9-20 20-20h327c3 0 6 1 8 2l218 103-17-81c-1-6 0-12 4-17 4-4 9-7 15-7h863c11 0 20 9 20 20v209c0 4-1 8-3 12l-101 151 83-5c6-1 11 1 15 5s6 9 6 15v927c0 11-9 20-20 20h-332v333c0 11-9 20-20 20z" fill="#ceb072"/><g><path d="m1317 472h-555c-11 0-20-9-20-20s9-20 20-20h555c11 0 20 9 20 20s-9 20-20 20zm-829 0h-99c-11 0-20-9-20-20s9-20 20-20h99c11 0 20 9 20 20s-9 20-20 20z" fill="#a28249"/></g><g><path d="m1317 711h-123c-11 0-20-9-20-20s9-20 20-20h123c11 0 20 9 20 20s-9 20-20 20zm-398 0h-530c-11 0-20-9-20-20s9-20 20-20h530c11 0 20 9 20 20s-9 20-20 20z" fill="#a28249"/></g><g><path d="m1317 950h-407c-11 0-20-9-20-20s9-20 20-20h407c11 0 20 9 20 20s-9 20-20 20zm-681 0h-247c-11 0-20-9-20-20s9-20 20-20h247c11 0 20 9 20 20s-9 20-20 20z" fill="#a28249"/></g><g><path d="m1317 1188h-232c-11 0-20-9-20-20s9-20 20-20h232c11 0 20 9 20 20s-9 20-20 20zm-506 0h-422c-11 0-20-9-20-20s9-20 20-20h422c11 0 20 9 20 20s-9 20-20 20z" fill="#a28249"/></g><path d="m1227 1351h335c4 0 8-1 11-3l2-2 4-1v1l-1 1-1 1-353 354c4-83-5-259 3-351z" fill="#a4834d"/></g></g></svg>