<svg id="Layer_1" enable-background="new 0 0 200 200" viewBox="0 0 200 200" xmlns="http://www.w3.org/2000/svg"><g><g><path d="m76.3 110 36.8-5.7 38.9 1.9 9.4 5.9-.8 31-98-6.6z" fill="#e5b28f"/></g><g><g><path d="m167.3 61.8 23.4 5.5v-5.3l-24.3-12.4z" fill="#d67937"/></g><g><path d="m165.7 50.6-98.1-4.4-.8 10.4 40.5 1.2h.2l49.8 2.6 10.7.5v-10.7z" fill="#e28d4b"/></g><g><path d="m156.7 139.6 11.4 1.7-.1-81.8-11.9-.7z" fill="#f4aa6b"/></g><g><path d="m162.7 185 4.4-5.4.4-35.3-5.4-1.6z" fill="#f8b582"/></g><g><path d="m153.6 184.2 9.1.8.3-41.1-10.5-.6z" fill="#f4aa6b"/></g><g><path d="m157.1 139.6-79.7-4.9c-.1.1-.2.1-.3.1l-9.8-.3v5.4l100.7 6v-5.6z" fill="#e28d4b"/></g><g><path d="m185.7 136.3.2 19.7 4-2.5.5-23-4.2 3s-.5 2.7-.5 2.8z" fill="#f8b582"/></g><g><path d="m181.9 155.1 4 .9.3-22-4.7 2.8z" fill="#d89361"/></g><g><path d="m52.1 156.4 3.3-2.2 1.2-16.2-4.6-1.1z" fill="#f8b582"/></g><g><path d="m47.3 156.1 4.8.3.7-18.7-6-.3z" fill="#d89361"/></g><g><path d="m15.1 176.2 5.9-4.9.5-32.7c0-.1.2-3 .2-3.1l-6.1.7z" fill="#f8b582"/></g><g><path d="m96.5 115.3-.1-15.1s0-1.6-.3-3.7c-.1-.4-.2-.7-.4-1.1-.2-.6-.3-1.2-.3-2-1.4-5.1-4-7.7-7.8-7.7-8.7 0-8.8 18.1-8.8 18.3l.1 9.6h.2z" fill="#684023"/></g><g><path d="m167.5 51.8 22.8 10.1 7.2-.6-22.5-9.5z" fill="#d88133"/></g><g><path d="m68.4 25.6-.8 13.6 18.5-.2v-5c0-.1 0-.1 0-.1z" fill="#f8b582"/></g><g><path d="m106 57.1-38.2-1.4-.3 78.9 11.9-6.7-.2-24.5c0-.7.1-16.1 8.3-16.1 3.6 0 6.2 2.5 7.5 7.2l.5 2.5c.3 1.8.3 3.2.3 3.3l.2 18.6 10.2-6.5z" fill="#a45921"/></g><g><path d="m5.9 23.2c0 .1 0 .1 0 0l.2 22.2 1.9 90.9 59.6 3.6.8-114.2z" fill="#f4aa6b"/></g><g><path d="m2.5 15v8.3l71.8 2.6v-8.6z" fill="#f49751"/></g><g><path d="m54.2 66.3-5.7-.2v6.2l5.7.3z" fill="#d1d1d1"/></g><g><path d="m86.1 33.8h5l-16.8-7.9-5.9-.3z" fill="#d88133"/></g><g><path d="m74.3 17.3v8.6l16.8 7.9-.2-7.4z" fill="#f8b582"/></g><g><path d="m9 175.4 6.1.8.9-39.7-8-.5z" fill="#f4aa6b"/></g><g><path d="m174.4 52.2 23.1 9.1v-9.1l-22.7-10.3z" fill="#f8b582"/></g><g><path d="m168 145.9 22.5-13.8v-4.9l-22.5 13.1z" fill="#d67937"/></g><g><path d="m167.5 59.4.5 80.8 22.5-12.6.2-60.4z" fill="#f8b582"/></g><g><path d="m107.4 57.1c-.1 0-.1 0-.2 0h-1.2v9.1l.3 46.2 50.2 3.1v-56.6z" fill="#c46b2d"/></g><g><path d="m174.8 41.9-106.7-3.8-.1 9.5 96.7 4.1 10.2.5z" fill="#f49751"/></g></g><g><g><g><path d="m136.9 123.7c.4-.2 4.1-2.1 5.5-1.5.3.1.5.4.5.7.4 2.2-2.5 4.2-4.3 5.3-2.6 1.5-4.3-.4-4.7-.8 1.2-.4 2.5-.9 3-3.7z" fill="#bfd3d8"/></g></g><g><g><g><path d="m100.2 97.8c.4 0 .6-.8 1-.9.6-.1 1.7 0 2.7 0 3.7 0 7.8 1.5 10-3.2 0 0-1-.8 0-.5 0 0 1-.2 1-.5 1.6.9 3.4.7 4.7.6.6 0 1.2-.1 1.6 0 4.9.5 9.4 3.8 9.4 3.8 10.2 8.2 8.8 14.5 7.4 21.1-.3 1.6-.7 3.2-.9 4.8-.6 4.6-4 4.9-4 4.9s-.1 0-.1.1c0 0 0 .1.1.1 0 0 .5.3.6.8.1.4-.1.9-.6 1.5-1.5 1.6-13.8.6-13.9.6 0 0-1.2-.2-2.1-.7l-3.6.1c-.1 0-1.5-.4-1.9-1.5l-.1-.4c-.3.1-1.4.2-2.6.3-3.1-2.3-2.6-3.8-3.7-3.9.2-.2.3-.3.5-.4.8-.7 1.6-1.3 1.2-3.4-.4-2-2.2-5-3.9-7.8-1.4-2.3-2.6-4.5-3.1-5.9-.7-3 .2-8.9.3-9.6z" fill="#ddf0f4"/></g></g><g><g><path d="m109 128.9c-1.6.1-3.4.1-4.2-.7-.3-.3-.5-.7-.5-1.2.1-1.1.5-1.6 1-2.1 1.1.2 3.2.9 3.7 4z" fill="#eff8fd"/></g></g></g><g><g><path d="m107.4 82.3c-1.2.4-2.2-.2-2.8.1 0-.6-.3-3.5-1-5 0-.1-3-5.1-2.2-10.2.4-2.7 1-3.4 1.5-3.5.4-.1.7.3.7.3s3.7 5.9 5.7 11.6c0 0 .4.9.5.9-.4 1.2.1 1.6-.3 3.1-.1 0-1.3 2.4-2.1 2.7z" fill="#bfd3d8"/></g></g><g><g><path d="" fill="#edc8a1"/></g></g><g><g><path d="m114.3 118.7s-.7-2-4.9-5.4c0 0-3.7-1.5-2.3 2.4 1.5 3.9 6.1 9.3 6.1 9.3s2.2-2.4 1.1-6.3z" fill="#fff"/></g></g><g><g><path d="m124.6 120.1s-1.8-.1-2.4-.5c0 0-.1 4-2 6.7l5.4-.5c.1 0-1.1-1.1-1-5.7z" fill="#fff"/></g></g><g><g><g><path d="m101.8 93.5c-.8-3.3-5.7-2.4-5.7-2.4s-.4-.6-1-.8l2.4-3.2c1.6-2.2 3.7-3.9 6.1-4.8 1.6-.7 1.6-.7 3.3-1.2.9-.3 1.6-1.3 1.6-1.3 1.9-9 5.4-11.9 7.8-13.8h.1c.7-.6 1.3-.7 1.8-.5 1.1.6 1.7 3.1 1.5 6.9-.3 5.6-4.8 10.9-4.9 11v.1s0 2.7.5 5.1c.4 2.2 0 4.8 0 5-2.2 4.5-7.7 4.5-11.4 4.4-.3 0-.7 0-1 0-.7 0-1.2 0-1.6.1-.3.1-.6.1-.9.1.8-.9 2-2.5 1.4-4.7z" fill="#eff8fd"/></g></g></g><g><g><path d="m96.1 96.9s-1.4-.7-2-3 1-3.5 1.1-3.5c.6.2 1 .8 1 .8s4.9-.9 5.7 2.4c.5 2.2-.6 3.7-1.4 4.5-2.5.1-4.4-1.2-4.4-1.2z" fill="#ddf0f4"/></g></g><g><g><path d="m93.9 93.1c0-.1.1-.1.2-.1s.2 0 .2.1c.2.3.6.8.9.8s1-.4 1.3-.5h.2c.1 0 .1.1.1.2 0 0 0 .8-1 1.3l-.2.1h-.1s-.9-.2-1.3-.8c-.3-.4-.4-.8-.3-1.1z" fill="#f8c0b4"/></g></g><g><g><path d="m116.2 69.4c.1 0 .1 0 0 0 0 0 .2-.3.3-.2.1 0 .3.1.5 1 .4 2.3.3 4.3-.3 6-.1.2-1.6 2.3-3 3.2-1 .7-1.7 1.6-2 2.1 0-.8.1-2.5 0-3.9-.1-2.2 1-5.6 4.5-8.2z" fill="#f8c0b4"/></g></g><g><g><path d="m105.5 86.1s.1 0 0 0c1.1 0 1.5.5 1.6.6 0 .2-.1 1.1-.7 1.6-.4.3-.8.4-1.4.3-.3 0-.9-.4-1.1-.6 0-.3.6-1.9 1.6-1.9z" fill="#67533e"/></g></g><g><g><path d="m113.2 125.1s-2.9 2.7-1.2 4.6 7.8.2 7.8.2-1.3-4.8-6.6-4.8z" fill="#eff8fd"/></g></g><g><g><path d="m121.6 126.2s-4.9.3-5.2 2.4 2.4 2.3 2.4 2.3l2.5-.5z" fill="#ddf0f4"/></g></g></g></g></svg>