<svg id="Layer_1" enable-background="new 0 0 512.107 512.107" height="512" viewBox="0 0 512.107 512.107" width="512" xmlns="http://www.w3.org/2000/svg"><path d="m448 415.588c-3.204 54.282-54.441 67.966-108.94 71.48.162 0-16.344 8.988-36.49 13.77-29.883 7.082-59.447.059-63.71-17.78-3.53-14.87 12.37-31.77 36.84-40.85-13.62-9.07-24.3-22.21-30.3-37.68-21.631 39.063-78.388 75.372-120.28 89.24-30.63 10.13-51.12 15.82-62.04.39-19.825-28.04 14.663-53.475 43.82-72.92-24.426-39.669-24.954-93.93-3.16-133.86 5.38.15 12.26-70.79 120.46-71.17 98.347-7.423 231.723 64.418 223.8 199.38z" fill="#ece2e2"/><path d="m504 407.588c0 35.305-36.67 58.137-68.13 43.59 6.97-9.35 11.27-21.02 12.13-35.59 1.15-19.59-.6-37.68-4.7-54.3 30.371-8.344 60.7 14.503 60.7 46.3z" fill="#cec4c4"/><path d="m281.05 18.118c-41.339 16.797-85.863 54.302-104.71 93.28-19.886-8.681-45.567-11.013-70.88-2.24 34.726-68.141 140.761-124.407 175.59-91.04z" fill="#cec4c4"/><path d="m448 415.588c-2.068 35.036-24.093 54.064-57.87 63.62-17.842 5.073-44.195 7.86-51.08 7.86-46.012 24.656-94.434 20.077-100.19-4.01-3.53-14.87 12.37-31.77 36.84-40.85-13.62-9.07-34.7-27.62-35.7-42.62-5.921-88.821 79.898-138.908 156.97-118.78 36.646 36.439 54.099 82.494 51.03 134.78z" fill="#fff6f6"/><path d="m227.39 215.988c-22.578 59.172-72.591 106.076-135.81 103.49 2.704-11.731 6.844-22.361 12.16-32.1 5.38.15 12.26-70.79 120.46-71.17 1.06-.08 2.12-.16 3.19-.22z" fill="#cec4c4"/><path d="m223.84 173.698c13.622 69.674-36.774 113.89-103.84 113.89-56.444 0-112-6.067-112-62.53 0-46.58 48.71-98.99 97.46-115.89 0-.54 35.371-13.271 70.88 2.23 34.459-71.269 148.225-130.142 179.37-90.34 30.7 39.237-52.634 136.738-131.87 152.64z" fill="#ece2e2"/><path d="m448 415.588c-2.068 35.036-24.093 54.064-57.87 63.62 6.289-35.117 29.203-41.534 26.98-57.24-3.199-22.926-76.505-35.697-36.02-87.28 7.67-9.76 16.99-18.51 22.1-29.82 0-3.71 2.78-8.92 3.97-13.11 28.701 33.413 43.698 75.148 40.84 123.83z" fill="#ece2e2"/><path d="m235.23 419.948c-18.09 23.321-62.76 58.145-110.11 73.82-30.63 10.13-51.12 15.82-62.04.39-4.03-5.7-5.9-11.27-5.94-16.81 5.12-.2 10.25-.42 15.34-1.22 8.568-1.348 33.565-6.367 41.32-10.19 3.946-1.959 2.751-1.304 49.07-34.74 16.611-11.966 29.536-20.269 66.81-25.38 2.698-.36 4.189.137 4.73 4.16.45 3.28.76 6.63.82 9.97z" fill="#cec4c4"/><path d="m108.498 125.198c-.413 6.362-6.963 10.151-11.41 14.718-12.183 12.509-6.733 27.511-51.107 46.183-2.12-8.455-1.929-17.966 2.887-25.231 5.566-8.397 16.054-11.986 24.025-17.649 10.986-7.805 22.656-14.099 35.605-18.021z" fill="#fff"/><circle cx="88" cy="190.588" r="14"/><path d="m248.519 67.65c7.164-6.839 13.046-9.334 55.085-31.56 8.176-4.323 18.537-8.56 26.075-3.201 8.215 5.84 6.336 19.186-.221 26.842s-16.189 11.895-23.938 18.342c-13.792 11.474-20.903 29.273-34.006 41.527-17.113 16.005-41.746 20.358-64.89 24.01-3.231.51.917-20.519 1.495-21.879 3.172-7.46 8.431-10.65 13.74-16.201 10.767-11.258 15.329-27.062 26.66-37.88z" fill="#ffa4b8"/><path d="m295.998 307.253c-9.091 0-11.112-12.896-2.396-15.634 8.514-2.674 17.395-4.03 26.397-4.03 4.418 0 8 3.582 8 8s-3.582 8-8 8c-14.477-.001-20.525 3.664-24.001 3.664z"/><path d="m496.366 368.774c-12.497-12.994-29.868-18.646-45.281-16.849-1.141.134-2.197-.602-2.545-1.744-16.982-55.632-57.493-89.331-88.486-107.805-36.128-21.533-82.962-36.007-126.456-34.68.884-9.077.47-19.179-.677-27.921 80.101-21.069 164.504-118.384 129.09-163.647-14.138-18.065-43.67-20.636-79.542-7.148-43.068-30.682-145.904 25.721-182.645 93.744-48.739 18.272-99.824 71.378-99.824 122.335 0 51.05 40.065 66.635 91.231 69.77-15.802 36.795-15.75 85.337 5.041 123.945-31.154 21.43-61.797 48.812-39.722 80.007 15.554 21.977 45.38 11.084 71.084 2.583 23.7-7.846 46.322-19.499 67.238-34.635 22.1-16.002 37.615-28.981 49.621-45.788 4.31 7.193 9.627 13.748 15.823 19.441-47.809 25.74-36.066 71.265 19.217 71.263 20.81 0 43.756-7.381 61.701-16.704 33.478-2.277 74.293-8.825 97.172-34.186 55.622 18.318 97.926-50.427 57.96-91.981zm-480.366-143.715c0-52.469 68.542-113.47 120-113.47 27.634 0 35.5 8.658 41.57 7.708 9.882-1.548 5.254-17.233 43.096-52.447 3.235-3.01 3.417-8.072.407-11.306-3.01-3.235-8.073-3.417-11.306-.407-15.767 14.671-28.513 30.52-37.218 46.214-15.25-5.247-33.99-7.164-50.185-4.662 33.086-47.183 101.109-87.98 140.536-79.029-9.162 4.678-18.281 10.189-27.247 16.501-3.613 2.543-4.48 7.534-1.937 11.147 2.544 3.613 7.535 4.479 11.147 1.937 65.417-46.047 132.811-41.876 101.506 22.275-21.358 43.765-77.999 87.082-124.104 96.334-2.938.59-5.218 2.744-6.067 5.471-1.392 4.47 1.881 7.041 1.881 26.472 0 53.696-49.34 81.79-98.08 81.79-64.206.001-103.999-9.121-103.999-54.528zm479.969 184.137c-.934 23.975-23.409 42.535-47.917 37.602 8.54-16.638 9.226-37.107 7.929-55.764-.306-4.407-4.111-7.73-8.535-7.426-4.408.307-7.732 4.128-7.426 8.536 3.457 49.775-11.314 81.112-101.37 86.935-4.662.232-13.481 8.174-37.924 13.976-26.409 6.256-51.251-.016-54.082-11.843-2.26-9.523 9.923-22.296 28.183-30.045 4.533 2.694 16.763 8.762 21.175 8.762 9.098 0 11.105-12.899 2.396-15.634-20.139-6.325-37.167-21.354-45.356-42.115-.126-.411-.284-.813-.475-1.2-6.874-18.39-6.182-39.712 3.361-58.269 2.021-3.929.474-8.752-3.456-10.773-3.929-2.021-8.752-.474-10.773 3.456-10.763 20.926-12.715 45.734-5.11 68.406-11.395 19.153-26.445 32.118-51.098 49.969-19.585 14.173-40.742 25.076-62.882 32.406-31.646 10.466-46.004 13.247-52.998 3.363-3.817-5.393-5.14-10.355-4.164-15.617 3.88-20.915 43.466-43.111 47.307-47.238 9.614-10.328-16.754-20.183-16.754-75.095 0-20.421 4.226-39.264 12.549-56.099 3.868.069 7.698.099 11.451.099 49.206 0 97.441-24.816 110.606-71.763 75.061-3.639 175.921 43.529 202.631 131.027 2.604 8.538 10.872 13.99 19.698 12.965 21.951-2.56 44.015 16.187 43.034 41.379z"/><path d="m268 323.588c-4.361 0-8-3.534-8-8 0-5.107 4.691-8.833 9.56-7.84 4.519.887 7.157 5.346 6.28 9.4-.742 3.797-4.093 6.44-7.84 6.44z"/></svg>