<svg id="Icons" height="512" viewBox="0 0 60 60" width="512" xmlns="http://www.w3.org/2000/svg"><g fill="#49311f"><path d="m29 16h2v43h-2z"/><path d="m30 7a1 1 0 0 1 -1-1v-5a1 1 0 0 1 2 0v5a1 1 0 0 1 -1 1z"/><path d="m18.095 15.679h2v12.513h-2z" transform="matrix(.942 -.335 .335 .942 -6.243 7.662)"/><path d="m13.7 7.751a1 1 0 0 1 -.942-.665l-2.041-5.751a1 1 0 0 1 1.883-.67l2.042 5.751a1 1 0 0 1 -.942 1.335z"/><path d="m34.648 20.935h12.513v2h-12.513z" transform="matrix(.335 -.942 .942 .335 6.537 53.131)"/><path d="m46.3 7.751a1 1 0 0 1 -.943-1.335l2.043-5.751a1 1 0 0 1 1.885.67l-2.044 5.751a1 1 0 0 1 -.941.665z"/></g><rect fill="#775337" height="16" rx="4" width="8" x="26" y="4"/><rect fill="#775337" height="16" rx="4" transform="matrix(.942 -.334 .334 .942 -2.918 5.786)" width="8" x="11.339" y="3.366"/><rect fill="#775337" height="16" rx="4" transform="matrix(-.942 -.334 .334 -.942 82.947 37.017)" width="8" x="40.661" y="3.366"/><path d="m23 59h-6.01a1.007 1.007 0 0 1 -1-.99c-.32-22.07-11.26-26.19-14.83-26.9a.2.2 0 0 1 .02-.4c3.31-.51 13.25-.84 18.46 7.58v.02c1.534 2.864 3.414 10.901 3.36 20.69z" fill="#8ba820"/><path d="m30 59h-8.03a78.5 78.5 0 0 0 -2.33-20.69v-.02c-3.4-12.36-9.56-15.01-11.78-15.54a.206.206 0 0 1 0-.4c3.71-.85 18.42-2.12 21.14 22.42 1 9.05 1 14.23 1 14.23z" fill="#9cc824"/><path d="m58.84 31.11c-3.57.71-14.51 4.83-14.83 26.9a1.007 1.007 0 0 1 -1 .99h-6.01c0-8.89 1-17 3.36-20.69v-.02c5.21-8.42 15.15-8.09 18.46-7.58a.2.2 0 0 1 .02.4z" fill="#8ba820"/><path d="m52.14 22.75c-2.22.53-8.38 3.18-11.78 15.54v.02a78.5 78.5 0 0 0 -2.33 20.69h-8.03s0-5.18 1-14.23c2.72-24.54 17.43-23.27 21.14-22.42a.206.206 0 0 1 0 .4z" fill="#9cc824"/></svg>