<svg id="Capa_1" enable-background="new 0 0 510 510" viewBox="0 0 510 510" xmlns="http://www.w3.org/2000/svg"><g><g><path d="m328.43 465.69h18.276c33.939 0 61.451-27.513 61.451-61.451v-18.276h-18.276c-33.939 0-61.451 27.513-61.451 61.451z" fill="#27a2cc"/><path d="m487.884 465.69h-18.276c-33.939 0-61.451-27.513-61.451-61.451v-18.276h18.276c33.939 0 61.451 27.513 61.451 61.451z" fill="#27a2cc"/><path d="m316.315 215.136c0 71.352 36.502 134.169 91.842 170.827 55.341-36.657 91.843-99.475 91.843-170.827s-36.502-134.169-91.843-170.826c-55.34 36.657-91.842 99.475-91.842 170.826z" fill="#67ccd1"/><path d="m336.29 129.159c0-.79.022-1.574.03-2.362-12.814 26.746-20.005 56.7-20.005 88.34 0 71.352 36.502 134.169 91.842 170.827 18.25-12.089 34.434-27.038 47.953-44.185-71.826-43.558-119.82-122.483-119.82-212.62z" fill="#27a2cc"/><path d="m336.29 129.159c41.31 35.068 102.187 35.119 143.554.153l-.311-3.457c-16.098-33.161-40.864-61.335-71.376-81.546-31.232 20.688-56.459 49.711-72.516 83.895z" fill="#27a2cc"/><path d="m268.774 173.697c0-71.586-58.134-129.593-129.768-129.387-71.552.206-129.006 59.316-129.006 130.868v186.526c0 49.567 39.646 90.687 89.212 91.019 49.892.334 90.441-40.01 90.441-89.824v-.03c0-36.77 15.155-71.671 41.173-97.654 23.443-23.412 37.948-55.766 37.948-91.518z" fill="#fde0be"/><path d="m57.54 169.736c0-38.805 7.38-75.886 20.811-109.917-40.755 22.171-68.351 65.774-68.351 115.359v186.526c0 49.567 39.646 90.687 89.212 91.019 32.994.221 61.897-17.351 77.694-43.684-72.495-54.67-119.366-141.509-119.366-239.303z" fill="#f7b073"/><g><path d="m139.387 91.85c-.082 0-.161.001-.243.001-44.996.129-81.604 37.51-81.604 83.328v186.526c0 23.82 18.836 43.324 41.989 43.479.097.001.194.001.291.001 11.248 0 21.823-4.356 29.805-12.284 8.052-7.999 12.487-18.654 12.487-30.002 0-49.199 19.576-95.826 55.121-131.323 15.477-15.457 24.001-36.011 24.001-57.879 0-21.907-8.543-42.491-24.057-57.959-15.454-15.41-35.97-23.888-57.79-23.888z" fill="#fd6050"/></g><path d="m57.586 173.345c-.013.612-.046 1.219-.046 1.833v186.525c0 23.82 18.836 43.324 41.989 43.479.097.001.194.001.291.001 11.248 0 21.823-4.356 29.805-12.284 4.811-4.78 8.319-10.512 10.373-16.77-50.325-52.915-81.483-124.213-82.412-202.784z" fill="#bc3c85"/><circle cx="139.387" cy="175.179" fill="#fff" r="30.253"/><path d="m397.72 241.057-16.863-16.863c-14.313-14.313-14.313-37.519 0-51.832l16.863-16.863 16.863 16.863c14.313 14.313 14.313 37.519 0 51.832z" fill="#27a2cc"/></g><g fill="#052a75"><path d="m436.697 376.712c46.331-40.528 73.303-99.076 73.303-161.575 0-72.235-36.008-139.212-96.32-179.164-3.348-2.217-7.697-2.217-11.045 0-60.312 39.952-96.32 106.929-96.32 179.164 0 62.5 26.972 121.047 73.303 161.575-34.551 4.994-61.187 34.791-61.187 70.703v18.275c0 5.522 4.478 10 10 10h18.275c26.112 0 48.985-14.087 61.451-35.053 12.466 20.966 35.339 35.053 61.451 35.053h18.275c5.522 0 10-4.478 10-10v-18.275c.001-35.913-26.635-65.709-61.186-70.703zm-28.54-320.272c25.654 18.273 46.094 42.092 60.131 69.239-17.316 12.811-38.416 19.82-60.132 19.82-.033 0-.067 0-.101 0-21.683-.022-42.742-7.031-60.029-19.82 14.038-27.147 34.477-50.965 60.131-69.239zm-20.229 122.994 9.792-9.792 9.792 9.792c5.033 5.033 7.806 11.726 7.806 18.845 0 7.118-2.772 13.811-7.806 18.844l-9.792 9.792-9.792-9.792c-5.033-5.033-7.806-11.726-7.806-18.844 0-7.12 2.773-13.812 7.806-18.845zm-61.614 35.703c0-24.648 4.643-48.613 13.324-70.86 11.552 7.921 24.383 13.755 37.881 17.28l-3.735 3.735c-8.811 8.812-13.663 20.526-13.663 32.987 0 12.46 4.853 24.175 13.663 32.986l16.863 16.863c1.953 1.952 4.512 2.929 7.071 2.929s5.118-.977 7.071-2.929l16.863-16.863c8.811-8.812 13.663-20.526 13.663-32.986 0-12.461-4.853-24.176-13.663-32.987l-.495-.495c19.921-2.15 39.023-9.21 55.516-20.519 8.681 22.247 13.324 46.212 13.324 70.86 0 63.274-30.469 122.103-81.843 158.696-51.371-36.595-81.84-95.423-81.84-158.697zm20.392 240.553h-8.275v-8.275c0-28.37 23.081-51.451 51.451-51.451h8.275v8.275c0 28.37-23.081 51.451-51.451 51.451zm131.178 0h-8.275c-28.37 0-51.451-23.081-51.451-51.451v-8.275h8.275c28.37 0 51.451 23.081 51.451 51.451z"/><path d="m398.92 109.069c2.447 6.459 11.571 8.26 16.31 3.25 4.423-4.216 3.646-12.121-1.52-15.389-8.125-5.459-18.564 3.116-14.79 12.139z"/><path d="m139.392 34.31c-.136 0-.278.001-.415.001-76.632.22-138.977 63.414-138.977 140.868v186.525c0 55.337 44.476 100.653 99.145 101.019.23.001.458.002.688.002 26.541 0 51.5-10.284 70.343-29.001 19.008-18.882 29.477-44.034 29.477-70.855 0-33.785 13.58-65.953 38.239-90.577 26.363-26.327 40.882-61.342 40.882-98.594 0-37.309-14.55-72.362-40.969-98.705-26.321-26.246-61.253-40.683-98.413-40.683zm84.367 223.829c-28.442 28.403-44.106 65.597-44.106 104.76 0 21.424-8.371 41.537-23.571 56.636-15.198 15.096-35.349 23.295-56.803 23.188-43.715-.292-79.279-36.637-79.279-81.019v-186.525c0-66.458 53.399-120.679 119.035-120.868.119 0 .236-.001.355-.001 31.826 0 61.75 12.367 84.293 34.845 22.629 22.563 35.091 52.588 35.091 84.543 0 31.904-12.435 61.892-35.015 84.441z"/><path d="m139.387 81.85-.272.001c-50.495.145-91.575 42.012-91.575 93.328v186.525c0 29.297 23.292 53.287 51.888 53.479l.392.002c13.904 0 26.992-5.395 36.853-15.189 9.956-9.891 15.438-23.065 15.438-37.097 0-46.514 18.534-90.639 52.187-124.246 17.369-17.347 26.935-40.415 26.935-64.955 0-24.583-9.587-47.682-26.996-65.04-17.335-17.288-40.366-26.808-64.85-26.808zm50.779 142.65c-37.437 37.387-58.054 86.537-58.054 138.398 0 8.664-3.386 16.8-9.534 22.907-6.088 6.048-14.17 9.379-22.758 9.379l-.224-.001c-17.675-.118-32.056-15.138-32.056-33.479v-186.525c0-40.32 32.134-73.215 71.604-73.328l.243-.001c19.152 0 37.168 7.447 50.729 20.97 13.618 13.579 21.118 31.647 21.118 50.878 0 19.193-7.482 37.235-21.068 50.802z"/></g></g><g/><g/><g/><g/><g/><g/><g/><g/><g/><g/><g/><g/><g/><g/><g/></svg>