<svg id="Capa_1" enable-background="new 0 0 512 512" height="512" viewBox="0 0 512 512" width="512" xmlns="http://www.w3.org/2000/svg"><g><path d="m392.233 199.793c-8.578 0-15.532 6.954-15.532 15.532v100.457l-43.033-36.258c-6.559-5.528-16.358-4.69-21.885 1.87s-4.69 16.358 1.87 21.885l63.048 53.122v86.802c0 8.578 6.954 15.532 15.532 15.532s15.532-6.954 15.532-15.532v-227.878c0-8.578-6.954-15.532-15.532-15.532z" fill="#a77d73"/><path d="m399.253 457.054c-2.112 1.077-4.494 1.677-7.02 1.677-8.573 0-15.532-6.948-15.532-15.531v-86.8l-63.048-53.118c-6.565-5.529-7.393-15.324-1.874-21.889 5.529-6.554 15.324-7.393 21.889-1.864l43.033 36.251v-100.458c0-8.573 6.958-15.532 15.532-15.532 2.526 0 4.908.601 7.02 1.677-5.053 2.557-8.522 7.807-8.522 13.854v227.879c.001 6.058 3.47 11.297 8.522 13.854z" fill="#98695e"/><g><path d="m45.288 150.162h334.797v160.714h-334.797z" fill="#98695e" transform="matrix(.707 -.707 .707 .707 -100.707 217.909)"/><path d="m373.685 154.78-236.738 236.737c-7.778 7.778-7.778 20.389 0 28.167l17.684 17.684c7.778 7.778 20.389 7.778 28.167 0l236.737-236.738c7.778-7.778 7.778-20.389 0-28.167l-17.684-17.684c-7.777-7.778-20.388-7.778-28.166.001z" fill="#a77d73"/><path d="m242.575 23.669-236.738 236.738c-7.778 7.778-7.778 20.389 0 28.167l17.684 17.684c7.778 7.778 20.389 7.778 28.167 0l236.737-236.738c7.778-7.778 7.778-20.389 0-28.167l-17.684-17.684c-7.777-7.778-20.388-7.778-28.166 0z" fill="#a77d73"/><path d="m308.13 89.224-236.738 236.738c-7.778 7.778-7.778 20.389 0 28.167l17.684 17.684c7.778 7.778 20.389 7.778 28.167 0l236.737-236.738c7.778-7.778 7.778-20.389 0-28.167l-17.684-17.684c-7.777-7.778-20.388-7.778-28.166 0z" fill="#a77d73"/><g fill="#98695e"><path d="m217.359 402.806-34.558 34.558c-7.783 7.783-20.391 7.783-28.174 0l-17.682-17.682c-7.776-7.776-7.783-20.391 0-28.174l34.558-34.558c-7.783 7.783-7.776 20.398 0 28.174l17.682 17.682c7.783 7.783 20.391 7.783 28.174 0z"/><path d="m86.251 271.698-34.558 34.558c-7.783 7.783-20.398 7.776-28.174 0l-17.682-17.682c-7.783-7.783-7.783-20.391 0-28.174l34.558-34.558c-7.783 7.783-7.783 20.391 0 28.174l17.682 17.682c7.776 7.775 20.391 7.783 28.174 0z"/><path d="m151.801 337.248-34.558 34.558c-7.783 7.783-20.391 7.783-28.166.007l-17.689-17.689c-7.775-7.775-7.776-20.383.007-28.166l34.558-34.558c-7.783 7.783-7.783 20.391-.007 28.166l17.689 17.689c7.775 7.776 20.383 7.776 28.166-.007z"/></g></g><path d="m486.519 443.201h-461.038c-14.073 0-25.481 11.408-25.481 25.481 0 14.073 11.408 25.481 25.481 25.481h461.039c14.073 0 25.481-11.408 25.481-25.481-.001-14.073-11.409-25.481-25.482-25.481z" fill="#b3e59f"/><path d="m63.948 486.699c4.608 4.618 10.976 7.465 18.017 7.465h-56.483c-7.031 0-13.409-2.847-18.017-7.465-4.607-4.608-7.465-10.976-7.465-18.017 0-14.071 11.411-25.482 25.482-25.482h56.483c-14.072 0-25.482 11.411-25.482 25.482 0 7.041 2.847 13.409 7.465 18.017z" fill="#95d6a4"/></g></svg>